<svg aria-hidden="true" style="position: absolute; width: 0; height: 0; overflow: hidden;" version="1.1" xmlns="http://www.w3.org/2000/svg" xmlns:xlink="http://www.w3.org/1999/xlink">
<symbol id="icon-logo" viewBox="0 0 148 32">
<path fill="#359740" style="fill: var(--color1, #359740)" d="M0 27.846l3.567-3.978c1.785 1.989 4.203 2.653 6.82 2.653 3.251 0 4.996-1.37 4.996-3.89 0-1.106-0.277-2.034-0.872-2.652-0.556-0.574-1.191-0.883-2.499-1.104l-3.409-0.53c-2.418-0.398-4.203-1.237-5.471-2.608-1.348-1.504-2.022-3.538-2.022-6.188 0-5.614 3.726-9.547 9.832-9.547 3.884 0 6.701 1.061 9.119 3.669l-3.49 3.845c-1.783-1.901-3.924-2.165-5.789-2.165-2.934 0-4.361 1.813-4.361 3.978 0 0.795 0.238 1.635 0.833 2.253 0.556 0.575 1.468 1.061 2.616 1.239l3.332 0.53c2.576 0.398 4.202 1.192 5.391 2.43 1.508 1.592 2.181 3.89 2.181 6.675 0 6.098-4.559 9.546-10.467 9.546-4.282 0-7.533-1.016-10.308-4.154z"></path>
<path fill="#359740" style="fill: var(--color1, #359740)" d="M25.969 31.735v-31.471h18.594v5.481h-13.084v7.382h11.142v5.479h-11.142v7.647h13.084v5.481h-18.594z"></path>
<path fill="#359740" style="fill: var(--color1, #359740)" d="M49.956 31.735v-31.471h18.594v5.481h-13.084v7.382h11.142v5.479h-11.142v7.647h13.084v5.481h-18.594z"></path>
<path fill="#359740" style="fill: var(--color1, #359740)" d="M115.059 31.735l-5.512-12.553h-3.965v12.553h-5.51v-31.471h11.061c5.748 0 9.157 4.377 9.157 9.636 0 4.42-2.418 7.161-5.154 8.267l6.304 13.569h-6.383zM110.777 5.746h-5.194v8.31h5.194c2.418 0 4.005-1.725 4.005-4.156 0-2.43-1.587-4.154-4.005-4.154z"></path>
<path fill="#359740" style="fill: var(--color1, #359740)" d="M142.059 31.735l-1.664-5.57h-10.031l-1.706 5.57h-5.748l10.269-31.471h4.321l10.31 31.471h-5.75zM135.478 9.547l-3.569 11.448h7.018l-3.449-11.448z"></path>
<path fill="#359740" style="fill: var(--color1, #359740)" d="M91.587 3.271c-1.864-2.077-4.521-3.007-7.455-3.007h-10.188v31.471h6.177c2.128-6.111 5.349-12.779 3.154-22.657 2.924 10.301 0.032 16.848-2.010 22.657h2.867c2.934 0 5.591-0.928 7.454-3.005 3.172-3.537 2.855-8.134 2.855-12.864 0-4.728 0.318-9.060-2.855-12.596zM83.083 28.018c1.581-3.955 3.243-10.298 0.878-18.075 3.165 3.964 3.654 9.821 2.984 12.493 5.727-6.416-0.159-13.913-6.031-17.107 3.744 7.021 3.18 13.637 0.272 21.596-9.134-6.398 1.71-14.548-1.364-23.32 13.266 5.687 15.63 18.476 3.26 24.413z"></path>
</symbol>
<symbol id="icon-leaf" viewBox="0 0 32 32">
<path d="M31.604 4.203c-3.461-2.623-8.787-4.189-14.247-4.189-6.754 0-12.257 2.358-15.099 6.469-1.335 1.931-2.073 4.217-2.194 6.796-0.108 2.296 0.278 4.835 1.146 7.567 2.965-8.887 11.244-15.847 20.79-15.847 0 0-8.932 2.351-14.548 9.631-0.003 0.004-0.078 0.097-0.207 0.272-1.128 1.509-2.111 3.224-2.846 5.166-1.246 2.963-2.4 7.030-2.4 11.931h4c0 0-0.607-3.819 0.449-8.212 1.747 0.236 3.308 0.353 4.714 0.353 3.677 0 6.293-0.796 8.231-2.504 1.736-1.531 2.694-3.587 3.707-5.764 1.548-3.325 3.302-7.094 8.395-10.005 0.292-0.167 0.48-0.468 0.502-0.804s-0.126-0.659-0.394-0.862z"></path>
</symbol>
<symbol id="icon-heart" viewBox="0 0 32 32">
<path d="M26.21 7.735c-1.373-1.358-3.194-2.187-5.133-2.337s-3.868 0.389-5.439 1.519c-1.648-1.209-3.7-1.758-5.742-1.535s-3.922 1.201-5.263 2.737c-1.34 1.536-2.041 3.515-1.96 5.54s0.935 3.944 2.393 5.372l8.045 7.948c0.674 0.654 1.581 1.021 2.526 1.021s1.853-0.367 2.526-1.021l8.045-7.948c1.513-1.501 2.362-3.532 2.362-5.648s-0.849-4.147-2.362-5.648zM24.383 17.268l-8.045 7.936c-0.091 0.091-0.201 0.164-0.321 0.213s-0.249 0.075-0.379 0.075-0.259-0.025-0.379-0.075c-0.12-0.049-0.229-0.122-0.321-0.213l-8.045-7.974c-1.016-1.024-1.585-2.401-1.585-3.834s0.569-2.809 1.585-3.834c1.035-1.008 2.432-1.574 3.887-1.574s2.851 0.565 3.887 1.574c0.12 0.12 0.264 0.215 0.422 0.28s0.327 0.098 0.498 0.098c0.171 0 0.34-0.033 0.498-0.098s0.301-0.16 0.422-0.28c1.035-1.008 2.432-1.574 3.887-1.574s2.851 0.565 3.887 1.574c1.030 1.011 1.618 2.38 1.637 3.813s-0.531 2.817-1.533 3.854v0.038z"></path>
</symbol>
<symbol id="icon-cart" viewBox="0 0 32 32">
<path d="M11.849 28.444c1.105 0 2-0.895 2-2s-0.895-2-2-2-2 0.895-2 2c0 1.105 0.895 2 2 2z"></path>
<path d="M24 28.444c1.105 0 2-0.895 2-2s-0.895-2-2-2-2 0.895-2 2c0 1.105 0.895 2 2 2z"></path>
<path d="M29.404 4.773c-0.083-0.102-0.187-0.184-0.305-0.241s-0.248-0.087-0.379-0.088h-18.507l0.578 1.778h16.764l-2.373 10.667h-13.333l-4.062-12.862c-0.044-0.136-0.12-0.26-0.222-0.361s-0.227-0.175-0.364-0.217l-3.644-1.12c-0.112-0.034-0.23-0.046-0.347-0.035s-0.23 0.045-0.334 0.1c-0.209 0.111-0.366 0.3-0.435 0.527s-0.046 0.471 0.065 0.68c0.111 0.209 0.3 0.366 0.527 0.435l3.191 0.978 4.080 12.889-1.458 1.191-0.116 0.116c-0.361 0.415-0.565 0.944-0.578 1.494s0.166 1.087 0.507 1.519c0.242 0.295 0.55 0.528 0.899 0.683s0.729 0.225 1.11 0.206h14.836c0.236 0 0.462-0.094 0.629-0.26s0.26-0.393 0.26-0.629-0.094-0.462-0.26-0.629c-0.167-0.167-0.393-0.26-0.629-0.26h-14.978c-0.102-0.003-0.202-0.033-0.29-0.087s-0.16-0.128-0.21-0.218c-0.050-0.089-0.076-0.19-0.076-0.293s0.027-0.203 0.077-0.292l2.142-1.778h13.725c0.205 0.005 0.406-0.061 0.568-0.188s0.275-0.305 0.32-0.506l2.818-12.444c0.027-0.133 0.023-0.269-0.011-0.4s-0.097-0.252-0.185-0.355z"></path>
</symbol>
<symbol id="icon-instagram" viewBox="0 0 32 32">
<path d="M16 11.001c-2.752 0-4.999 2.246-4.999 4.999s2.246 4.999 4.999 4.999c2.753 0 4.999-2.246 4.999-4.999s-2.246-4.999-4.999-4.999zM30.992 16c0-2.070 0.019-4.121-0.097-6.187-0.116-2.4-0.664-4.53-2.419-6.285-1.759-1.759-3.885-2.303-6.285-2.419-2.070-0.116-4.121-0.097-6.188-0.097-2.070 0-4.121-0.019-6.187 0.097-2.4 0.116-4.53 0.664-6.285 2.419-1.759 1.759-2.303 3.885-2.419 6.285-0.116 2.070-0.097 4.121-0.097 6.187s-0.019 4.121 0.097 6.188c0.116 2.4 0.664 4.53 2.419 6.285 1.759 1.759 3.885 2.303 6.285 2.419 2.070 0.116 4.121 0.098 6.187 0.098 2.070 0 4.121 0.019 6.188-0.098 2.4-0.116 4.53-0.664 6.285-2.419 1.759-1.759 2.303-3.885 2.419-6.285 0.12-2.066 0.097-4.117 0.097-6.188zM16 23.691c-4.256 0-7.691-3.435-7.691-7.691s3.435-7.691 7.691-7.691c4.256 0 7.691 3.435 7.691 7.691s-3.435 7.691-7.691 7.691zM24.006 9.79c-0.994 0-1.796-0.803-1.796-1.796s0.803-1.796 1.796-1.796c0.994 0 1.796 0.803 1.796 1.796 0 0.236-0.046 0.47-0.136 0.688s-0.223 0.416-0.389 0.583c-0.167 0.167-0.365 0.299-0.583 0.389s-0.452 0.136-0.688 0.136z"></path>
</symbol>
<symbol id="icon-facebook" viewBox="0 0 32 32">
<path d="M0 16.089c0 7.955 5.777 14.569 13.333 15.911v-11.556h-4v-4.444h4v-3.556c0-4 2.577-6.221 6.223-6.221 1.155 0 2.4 0.177 3.555 0.355v4.089h-2.044c-1.956 0-2.4 0.977-2.4 2.223v3.111h4.267l-0.711 4.444h-3.556v11.556c7.556-1.341 13.333-7.955 13.333-15.911 0-8.849-7.2-16.089-16-16.089s-16 7.24-16 16.089z"></path>
</symbol>
<symbol id="icon-search" viewBox="0 0 32 32">
<path d="M31.551 29.302l-5.932-5.889c2.303-2.874 3.418-6.521 3.116-10.192s-1.997-7.087-4.738-9.545-6.319-3.772-9.998-3.671c-3.679 0.101-7.18 1.608-9.783 4.213s-4.109 6.108-4.21 9.79c-0.101 3.682 1.212 7.263 3.668 10.006s5.87 4.44 9.538 4.742c3.668 0.302 7.313-0.814 10.184-3.119l5.884 5.889c0.149 0.15 0.326 0.269 0.52 0.35s0.404 0.123 0.615 0.123c0.211 0 0.42-0.042 0.615-0.123s0.372-0.2 0.52-0.35c0.288-0.298 0.449-0.697 0.449-1.112s-0.161-0.814-0.449-1.112zM14.425 25.638c-2.214 0-4.378-0.657-6.219-1.888s-3.275-2.98-4.123-5.027c-0.847-2.047-1.069-4.299-0.637-6.472s1.498-4.169 3.063-5.736c1.565-1.567 3.56-2.633 5.731-3.066s4.422-0.21 6.467 0.637c2.045 0.848 3.793 2.284 5.023 4.126s1.886 4.008 1.886 6.223c0 2.971-1.179 5.82-3.278 7.921s-4.946 3.281-7.915 3.281z"></path>
</symbol>
<symbol id="icon-down-arrow" viewBox="0 0 55 32">
<path fill="none" stroke-linejoin="round" stroke-linecap="round" stroke-miterlimit="4" stroke-width="9.1429" d="M4.571 4.571l22.857 22.857 22.857-22.857"></path>
</symbol>
<symbol id="icon-red_fire" viewBox="0 0 32 32">
<path fill="#e55c5c" style="fill: var(--color1, #e55c5c)" d="M25.228 15.149c-0.535-1.203-1.312-2.283-2.283-3.172l-0.801-0.735c-0.027-0.024-0.060-0.041-0.095-0.050s-0.072-0.008-0.108 0-0.068 0.026-0.095 0.051c-0.027 0.024-0.048 0.055-0.060 0.090l-0.358 1.027c-0.223 0.644-0.633 1.302-1.214 1.95-0.039 0.041-0.083 0.052-0.113 0.055s-0.077-0.003-0.118-0.041c-0.039-0.033-0.058-0.083-0.055-0.132 0.102-1.658-0.394-3.527-1.479-5.562-0.898-1.691-2.145-3.010-3.703-3.929l-1.137-0.669c-0.149-0.088-0.339 0.028-0.33 0.201l0.061 1.322c0.041 0.903-0.063 1.702-0.311 2.365-0.303 0.812-0.738 1.567-1.294 2.244-0.387 0.471-0.826 0.897-1.308 1.269-1.161 0.893-2.105 2.036-2.762 3.345-0.655 1.321-0.996 2.775-0.997 4.249 0 1.3 0.256 2.558 0.763 3.745 0.489 1.143 1.195 2.18 2.079 3.054 0.892 0.881 1.927 1.575 3.081 2.057 1.195 0.501 2.462 0.755 3.77 0.755s2.575-0.253 3.769-0.752c1.151-0.479 2.197-1.178 3.081-2.057 0.892-0.881 1.591-1.911 2.079-3.054 0.506-1.183 0.765-2.458 0.763-3.745 0-1.344-0.275-2.649-0.823-3.88z"></path>
</symbol>
<symbol id="icon-seeds_left" viewBox="0 0 40 32">
<path fill="#78af02" style="fill: var(--color4, #78af02)" d="M21.234 13.814c-0.013 0.55-0.011 1.085-0.049 1.635-0.029 0.427 0.174 0.807 0.122 1.227-0.068 0.542-0.364 0.492-0.903 0.585-0.647 0.113-1.295 0.192-1.938 0.304-0.865 0.15-1.798 0.104-2.644-0.139-1.665-0.478-3.109-1.45-4.303-2.7-2.228-2.335-3.552-5.831-3.676-9.043-0.029-0.713-0.11-1.741-0.548-2.34-0.309-0.424-1.050-0.898-0.107-0.87 0.557 0.018 0.96 0.314 1.449 0.503 0.495 0.189 1.029 0.194 1.559 0.229 0.502 0.029 1 0.109 1.497 0.17 3.234 0.382 5.723 3.052 7.503 5.555 1.047 1.469 2.076 3.019 2.038 4.885z"></path>
<path fill="#a3ce24" style="fill: var(--color5, #a3ce24)" opacity="0.42" d="M19.107 17.465c-0.213 0.031-0.428 0.064-0.638 0.101-0.865 0.15-1.798 0.104-2.644-0.139-1.665-0.478-3.109-1.45-4.303-2.7-2.231-2.337-3.554-5.832-3.679-9.044-0.029-0.713-0.11-1.741-0.548-2.34-0.309-0.424-1.050-0.898-0.107-0.87 0.424 0.012 0.762 0.19 1.112 0.355 0.603 0.606 0.892 1.405 1.443 2.093 0.227 0.282 0.469 0.532 0.673 0.836 0.050 0.076 0.45 0.99 0.404 0.975-0.601-0.212-0.998-0.623-1.406-1.096-0.35-0.406-0.832-1.196-1.385-1.315-0.546 1.133 1.162 2.133 1.731 2.807-0.567-0.23-0.923-0.789-1.465-1.059 0.187 0.332 0.019 0.843 0.185 1.229 0.172 0.394 0.468 0.624 0.87 0.772 0.633 0.238 1.23 0.436 1.861 0.536 0.67 0.106 1.396-0.112 1.974 0.35-0.449 0.475-1.684 0.060-2.201-0.073-0.296-0.075-2.529-0.806-2.508-0.906-0.396 1.897 2.344 2.707 3.668 2.72 0.441 0.003 0.884-0.036 1.325-0.048 0.228-0.006 1 0.144 1.167 0.041-1.261 0.782-3.031 0.521-4.341 0.024-0.304-0.114-0.608-0.263-0.917-0.28-0.611 1.393 1.408 1.765 2.289 1.849 0.723 0.068 1.461 0.285 2.19 0.249 0.523-0.025 1.012-0.315 1.527-0.379-0.587 0.466-1.506 0.617-2.239 0.643-0.879 0.029-1.788-0.422-2.66-0.283-0.222 0.605 1.078 1.487 1.516 1.701 0.849 0.415 2.031 0.37 2.955 0.384 0.522 0.007 1.027-0.225 1.514-0.391 0.29-0.098 1.16-0.144 1.358-0.309-0.453 0.374-1.157 0.561-1.724 0.684-0.363 0.078-0.729 0.151-1.098 0.189-0.329 0.031-0.801-0.099-1.103-0.020-0.829 0.22-0.321 0.819 0.226 0.956 1.211 0.296 2.355 0.31 3.564 0.088-0.601 0.109-1.088 0.376-1.763 0.397-0.673 0.018-1.305-0.226-1.995-0.094 0.037 0.762 2.634 0.986 3.163 1.038 0.614 0.059 1.21-0.029 1.793-0.213 0.305-0.098 0.839-0.44 1.23-0.523 0.11-0.022 0.206-0.025 0.282 0.004s-0.941 0.875-1.071 0.94c-0.075 0.040-0.152 0.082-0.225 0.123z"></path>
<path fill="#a3ce24" style="fill: var(--color5, #a3ce24)" opacity="0.42" d="M15.825 17.427c-1.665-0.478-3.109-1.45-4.303-2.7-2.231-2.337-3.554-5.832-3.679-9.044-0.029-0.713-0.11-1.741-0.548-2.34-0.309-0.424-1.050-0.898-0.107-0.87 0.534 0.015 0.925 0.289 1.386 0.476 0.397 0.31 0.725 0.658 0.894 1.161 0.012 0.038 0.026 0.080 0.036 0.12 0.241 0.865-0.402 0.656-0.933 0.863-0.839 0.325 0.107 1.126 0.582 1.409 0.395 0.233 1.189 0.273 1.411 0.696-0.631 0.463-1.444-0.117-2.087-0.323-0.234 1.285 1.834 1.623 2.772 1.583 1.128-0.045 0.316 0.569-0.29 0.765-0.39 0.127-0.724 0.155-1.133 0.127-0.293-0.019-0.72-0.142-0.974-0.054 0.628 0.577 1.299 0.968 2.168 1.203 0.451 0.125 1.077 0.268 1.56 0.287 0.429 0.016 0.921-0.183 1.307 0.048-0.094 0.517-1.414 0.654-1.829 0.67-0.999 0.040-1.73-0.157-2.661-0.447 0.006 0.394 0.537 0.844 0.847 1.055 0.449 0.304 1.027 0.308 1.549 0.394 0.611 0.103 1.254 0.212 1.871 0.157 0.374-0.034 1.266-0.458 1.56-0.279-0.202 0.497-1.121 0.843-1.589 1.019-0.834 0.313-1.85 0.251-2.673-0.084 0.009 0.334 0.783 0.782 1.061 0.938 1.432 0.797 3.086 0.463 4.591-0.017 0.369-0.117 0.798-0.393 0.586 0.219-0.117 0.334-0.43 0.539-0.756 0.672-0.982 0.413-2.090 0.104-3.104 0.195 0.492 0.223 1.095 0.494 1.64 0.543 0.913 0.335 2.017-0.218 2.887 0.097-0.545 0.438-1.194 0.538-1.879 0.483-0.451-0.035-1.035-0.372-1.478-0.261-0.454 0.11-0.376 0.368-0.014 0.607 0.61 0.406 1.524 0.222 2.21 0.357 0.31 0.060 0.441-0.026 0.313 0.362-0.013 0.038-0.034 0.077-0.059 0.113-0.384-0.027-0.767-0.092-1.134-0.198z"></path>
<path fill="#a3ce24" style="fill: var(--color5, #a3ce24)" opacity="0.42" d="M14.914 15.843c0.022 0.009 0.044 0.014 0.067 0.023 0.015-0 0.032 0.005 0.047 0.005-0.038-0.017-0.076-0.025-0.114-0.028z"></path>
<path fill="#6d9e02" style="fill: var(--color6, #6d9e02)" d="M18.469 17.565c-0.865 0.15-1.798 0.104-2.644-0.139-0.147-0.041-0.293-0.095-0.435-0.143 0.177 0.040 0.348 0.077 0.501 0.096 0.791 0.103 1.983 0.1 2.662-0.378 0.156-0.112 0.278-0.251 0.364-0.417 0.293-0.569-0.502-0.757-0.896-0.791-0.642-0.050-1.307 0.173-1.939 0.256-0.767 0.099-2.065-0.047-2.884-0.563 1.29 0.479 4.43 0.765 4.836-0.855 0.019-0.077-0.003-0.172-0.087-0.2-0.829-0.246-1.593 0.1-2.428 0.193-0.797 0.091-3.058-0.151-3.404-0.316 1.227 0.149 2.733 0.026 3.732-0.523 0.598-0.331 0.176-1.064-0.318-1.245-0.68-0.254-1.441 0.109-2.157 0.067-0.815-0.044-1.614-0.127-2.41-0.299-0.211-0.043-0.412-0.13-0.62-0.207-0.387-0.144-0.772-0.341-0.948-0.734 0.559 0.527 1.352 0.613 2.071 0.686 0.785 0.077 1.568 0.156 2.281-0.274 0.246-0.148 0.998-0.582 0.742-0.974-0.222-0.343-1.244-0.215-1.591-0.194-0.759 0.053-1.425-0.064-2.164-0.194-0.659-0.116-1.151-0.34-1.64-0.82 0.857 0.489 1.834 0.614 2.804 0.539 0.462-0.036 1.493-0.316 1.071-1.005-0.348-0.575-1.313-0.401-1.863-0.403-0.824 0.003-1.707-0.475-2.403-0.867 0.459 0.074 0.888 0.295 1.36 0.306 0.246 0.004 0.755 0.019 0.954-0.108 0.442-0.285-0.069-0.436-0.327-0.534-0.732-0.277-1.295-0.641-1.888-1.142-0.483-0.408-0.742-0.89-0.926-1.487 0.229 0.655 0.764 0.96 1.304 1.322 0.4 0.266 0.908 0.67 1.417 0.386 0.114-0.063 0.139-0.189 0.252-0.216 0.202-0.050 0.369 0.128 0.517 0.234 0.138 0.099 0.285 0.14 0.428 0.228 0.358 0.225 0.333 0.676 0.517 1.013 0.203 0.365 0.539 0.65 0.825 0.95 0.358 0.376 0.712 0.756 1.065 1.133 0.695 0.74 1.386 1.489 2.085 2.229 0.931 0.993 1.842 2 2.716 3.042 0.618 0.736 1.059 1.146 1.957 1.423 0.082 0.026 0.203 0.059 0.34 0.104-0.084 0.459-0.377 0.425-0.887 0.513-0.652 0.12-1.3 0.199-1.943 0.311z"></path>
<path fill="#61a304" style="fill: var(--color7, #61a304)" d="M18.824 15.82c-0.585-0.431-1.114-0.94-1.664-1.414-1.211-1.046-2.531-2.109-3.526-3.371-1.023-1.297-2.044-2.556-2.971-3.928-0.866-1.285-1.771-2.761-2.907-3.81-0.24-0.223-0.599-0.426-0.892-0.565-0.032-0.016-0.070-0.028-0.112-0.040-0.067-0.142 0.014-0.231 0.438-0.219 0.557 0.018 0.96 0.315 1.449 0.503 0.495 0.189 1.029 0.194 1.559 0.229 0.502 0.029 1 0.109 1.497 0.17 3.234 0.382 5.723 3.052 7.503 5.555 1.046 1.472 2.075 3.022 2.034 4.886-0.013 0.55-0.011 1.085-0.049 1.635-0.029 0.427 0.174 0.807 0.122 1.227-0.028 0.225-0.096 0.345-0.206 0.418-0.798-0.32-1.534-0.726-2.276-1.274z"></path>
<path fill="#468e02" style="fill: var(--color8, #468e02)" opacity="0.6" d="M7.753 3.296c-0.24-0.223-0.599-0.426-0.892-0.565-0.032-0.016-0.070-0.028-0.112-0.040-0.067-0.142 0.014-0.231 0.438-0.219 0.040-0 0.079 0.006 0.115 0.010-0.015 0.026-0.025 0.054-0.023 0.088 0.006 0.167 0.305 0.334 0.426 0.421 0.201 0.148 0.333 0.325 0.485 0.514 0.544 0.664 1.007 1.379 1.553 2.045 0.284 0.348 0.935 1.695 1.412 1.745 0.431 0.043 0.225-0.459 0.129-0.787-0.11-0.379-0.319-0.586-0.487-0.923-0.179-0.363-0.283-0.762-0.512-1.1-0.276-0.404-0.584-0.704-0.902-1.059 0.568 0.213 0.996 1.054 1.306 1.551 0.438 0.7 0.764 1.407 0.968 2.198 0.169 0.644 0.287 1.183 0.749 1.684 0.077 0.084 0.197 0.303 0.324 0.232 0.172-0.1 0.070-0.484 0.091-0.645 0.054-0.326 0.133-0.622 0.146-0.962 0.024-0.596-0.047-1.205-0.063-1.801-0.015-0.516-0.161-1.107-0.42-1.56 0.601 1.056 0.905 2.085 0.802 3.312-0.034 0.394 0.002 0.806-0.051 1.196-0.056 0.4-0.104 0.808 0.078 1.188 0.171 0.354 0.492 0.671 0.754 0.974 0.359 0.42 0.531 0.244 0.657-0.228 0.218-0.806 0.129-1.631 0.283-2.433 0.14-0.732-0.107-1.573-0.184-2.306-0.058-0.597-0.231-1.114-0.471-1.589 0.018 0.010 0.037 0.019 0.055 0.029 0.021 0.011 0.041 0.023 0.063 0.038 0.788 0.941 0.847 2.256 1.002 3.466 0 0.13-0.001 0.262-0.002 0.395-0.024 0.801-0.060 1.615-0.020 2.419 0.027 0.56-0.046 1.149 0.472 1.507 0.194 0.132 0.49 0.276 0.688 0.101 0.091-0.082 0.159-0.261 0.199-0.373 0.378-1.044 0.285-2.229 0.343-3.32 0.037-0.684 0.044-1.378-0.002-2.067 0.007 0.005 0.013 0.013 0.018 0.020 0.002 0.002 0.005 0.003 0.005 0.008 0.422 0.688 0.401 1.521 0.428 2.301 0.014 0.403 0.060 0.84 0.020 1.244-0.036 0.371-0.055 0.739-0.086 1.11-0.047 0.547-0.116 1.056-0.106 1.604 0.011 0.718 0.212 1.869 1.093 2.003 0.575 0.088 0.877-0.935 1.024-1.331 0.337-0.901 0.287-2.033 0.255-2.986-0.008-0.215-0.020-0.429-0.036-0.643 0.062 0.095 0.126 0.191 0.185 0.284 0.147 0.228 0.135 0.67 0.192 0.938 0.078 0.373-0.052 0.785-0.072 1.17-0.042 0.756-0.095 1.709-0.4 2.41-0.132 0.305-0.491 1.367 0.228 1.22 0.737-0.152 1.164-1.184 1.322-1.907-0.010 0.526-0.011 1.045-0.046 1.575-0.029 0.427 0.174 0.807 0.122 1.227-0.028 0.225-0.096 0.345-0.206 0.418-0.701-0.284-1.353-0.636-2.004-1.085-0.611-0.475-1.208-0.968-1.793-1.475-0.049-0.042-0.098-0.085-0.147-0.127-0.066-0.058-0.134-0.114-0.201-0.173-0.218-0.193-0.441-0.385-0.658-0.58-0.794-0.707-1.636-1.423-2.343-2.23-0.111-0.127-0.22-0.256-0.324-0.388-1.023-1.297-2.044-2.556-2.971-3.928-0.499-0.741-1.002-1.563-1.583-2.305-0.395-0.554-0.831-1.072-1.311-1.514z"></path>
<path fill="#a3ce24" style="fill: var(--color5, #a3ce24)" opacity="0.31" d="M20.063 15.068c-0.271-0.296 0.128-1.559 0.189-1.905 0.244-1.35 0.197-2.48-0.799-3.533-0.304-0.319-0.569-0.524-0.78-0.034-0.264 0.614-0.118 2.043-0.075 2.701 0.021 0.318 0.239 2.108-0.507 1.72-0.399-0.207-0.327-1.287-0.356-1.654-0.064-0.85-0.083-1.668 0.048-2.522 0.080-0.523 0.408-1.416 0.236-1.926-0.21-0.627-1.641-1.481-1.668-0.339-0.021 0.818-0.003 1.621-0.063 2.439-0.019 0.278-0.037 1.996-0.456 1.655-0.29-0.234-0.206-1.265-0.242-1.612-0.089-0.886-0.17-1.853-0.12-2.74 0.031-0.555 0.152-1.463-0.505-1.743-0.497-0.212-0.606 0.261-0.684 0.631-0.194 0.928 0.2 2.307-0.352 3.133-0.446 0.661-0.511-0.233-0.564-0.661-0.077-0.611-0.061-1.226-0.069-1.842-0.011-0.502 0.037-1.895-0.775-1.833-0.103 0.47 0.337 1.926-0.33 2.143-0.395 0.128-0.409-0.802-0.483-1.025-0.22-0.677-0.844-2.095-1.629-2.236-0.445 0.73 1.023 1.538 0.646 2.299-0.58-0.257-0.927-0.813-1.302-1.295-0.343-0.441-0.829-0.884-1.326-1.251-0.114-0.118-0.227-0.231-0.346-0.342-0.24-0.223-0.599-0.426-0.892-0.565-0.032-0.016-0.070-0.028-0.112-0.040-0.067-0.142 0.014-0.231 0.438-0.219 0.557 0.018 0.96 0.314 1.449 0.503 0.495 0.189 1.029 0.194 1.559 0.229 0.502 0.029 1 0.109 1.497 0.17 3.234 0.382 5.723 3.052 7.503 5.555 0.879 1.237 1.744 2.528 1.973 4.016-0.046 0.19-0.179 0.344-0.479 0.417 0.166 0.332-0.19 2.178-0.624 1.708z"></path>
<path fill="#4a8209" style="fill: var(--color9, #4a8209)" d="M9.013 4.716c-0.035-0.047-0.070-0.093-0.107-0.138 0.594 0.459 1.136 1.346 1.562 1.918 0.353 0.473 0.656 1.347 1.125 1.702 0.111-0.511-0.203-1.35-0.414-1.833 0.412 0.516 0.58 1.13 0.732 1.762 0.145 0.591 0.305 1.253 0.911 1.523 0.411-0.422 0.193-1.253 0.331-1.778 0.206 0.808-0.003 1.973 0.086 2.29 0.127 0.451 1.355 1.488 1.836 1.621 0.081-0.274-0.074-0.63-0.087-0.924-0.014-0.302 0.041-0.609 0.002-0.907 0.25 0.652 0.248 1.231 0.372 1.897 0.13 0.703 0.705 1.227 1.234 1.651 0.669-0.786 0.293-2.061 0.771-2.912 0.244 0.489-0.014 1.285-0.050 1.807-0.036 0.558-0.076 1.11 0.153 1.65 0.177 0.416 0.543 0.952 1.049 0.94 0.529-0.009 1.025-0.8 1.206-1.233-0.030 0.624-0.781 1.369-0.473 2 0.244 0.504 0.739 0.573 1.208 0.316 0.423-0.233 0.563-0.674 0.734-1.092-0.005 0.158-0.009 0.318-0.020 0.48-0.029 0.427 0.174 0.807 0.122 1.227-0.028 0.225-0.096 0.345-0.206 0.418-0.472-0.191-0.923-0.417-1.364-0.676-1.105-0.941-2.292-1.804-3.421-2.733-0.955-0.819-1.916-1.675-2.683-2.651-1.023-1.297-2.044-2.556-2.971-3.928-0.496-0.735-1.007-1.53-1.564-2.276-0.018-0.045-0.047-0.085-0.076-0.12z"></path>
<path fill="#ccea86" style="fill: var(--color10, #ccea86)" opacity="0.24" d="M10.62 12.969c0.314 0.582 0.694 1.133 1.198 1.631 1.452 1.443 4.655 3.043 6.667 1.793-0.27-0.684-2.049-1.189-2.673-1.58-1.596-1.001-2.877-2.476-4-3.975-1.064-1.42-1.564-3.939-3.385-4.611-0.645 0.864 0.191 2.135 0.559 2.903 0.606 1.29 0.982 2.63 1.636 3.839z"></path>
<path fill="#d5d458" style="fill: var(--color16, #d5d458)" d="M26.105 23.403c1.038-0.853 2.436-1.106 3.765-1.291 0.455-0.064 0.924-0.121 1.369 0 0.708 0.188 1.308 0.814 2.041 0.757 0.203-0.014 0.416-0.085 0.604-0.011 0.245 0.096 0.348 0.405 0.299 0.665s-0.213 0.48-0.373 0.69c-1.902 2.482-4.007 5.106-7.012 5.97-0.779 0.224-1.7 0.313-2.453-0.046-0.967-0.459-0.974-1.202-0.768-2.144 0.37-1.728 1.134-3.442 2.528-4.59z"></path>
<path fill="#bfb939" style="fill: var(--color17, #bfb939)" opacity="0.62" d="M24.469 30.19c0.985-0.135 1.884-0.601 2.727-1.102 0.693-0.412 1.436-0.839 2.069-1.337 0.427-0.334 0.676-0.839 0.914-1.326 0.164-0.334 0.327-0.668 0.491-1.006 0.092-0.188 0.185-0.38 0.21-0.59-0.427 0.156-0.853 0.313-1.276 0.469 0.341-0.124 0.747-0.64 1.024-0.882 0.142-0.121 0.654-0.423 0.476-0.686-0.071-0.107-0.21-0.142-0.338-0.16-0.402-0.060-0.821-0.018-1.205 0.121 0.267-0.309 0.686-0.437 1.088-0.508 0.107-0.018 0.224-0.039 0.299-0.121-0.117-0.107-0.292-0.124-0.452-0.132-0.864-0.039-1.735 0.053-2.571 0.27 0.284-0.142 0.569-0.281 0.871-0.377 0.196-0.060 0.398-0.103 0.597-0.146 0.43-0.089 0.86-0.178 1.294-0.267-0.338-0.199-0.907-0.192-1.28-0.124-0.288 0.053-0.608-0.007-0.889 0.053 0.444-0.096 0.9-0.167 1.348-0.228 0.455-0.064 0.924-0.121 1.369 0 0.708 0.188 1.308 0.814 2.041 0.757 0.203-0.014 0.416-0.085 0.604-0.011 0.245 0.096 0.348 0.405 0.299 0.665-0.046 0.26-0.21 0.48-0.37 0.69-1.902 2.482-4.007 5.106-7.012 5.97-0.736 0.21-1.6 0.299-2.329 0.007z"></path>
<path fill="#e5df6e" style="fill: var(--color18, #e5df6e)" opacity="0.44" d="M26.581 24.092c0.608-0.42 1.284-0.75 2.002-0.917 0.91-0.213 1.895-0.156 2.738 0.249 0.462 0.22 0.903 0.597 0.974 1.102 0.124 0.91-0.434 1.515-0.946 2.158-0.619 0.782-1.422 1.408-2.297 1.888-1.113 0.608-2.34 0.985-3.577 1.269-0.466 0.107-1.042 0.167-1.34-0.21-0.206-0.26-0.188-0.629-0.139-0.956 0.263-1.767 1.099-3.556 2.585-4.583z"></path>
<path fill="#e5df6e" style="fill: var(--color18, #e5df6e)" d="M25.554 29.109c-0.057 0.025-0.114 0.050-0.171 0.078-0.274 0.128-0.693 0.341-0.999 0.228-0.359-0.135-0.22-0.939-0.156-1.262 0.188-0.985 0.821-1.735 1.458-2.364 0.331-0.331 0.743-0.58 1.198-0.608 0.188-0.011 0.38 0.014 0.569-0.007 0.395-0.043 0.743-0.32 1.141-0.331 0.242-0.007 0.583 0.028 0.818 0.096 0.196 0.057 0.388 0.21 0.448 0.427 0.064 0.224-0.021 0.455-0.114 0.651-0.619 1.308-1.717 2.283-2.994 2.656-0.427 0.124-0.804 0.26-1.198 0.437z"></path>
<path fill="#b9bc37" style="fill: var(--color19, #b9bc37)" opacity="0.77" d="M24.341 30.137c-0.27-0.128-0.466-0.281-0.601-0.452 0.167 0.21 0.892 0.075 1.113 0.053 0.512-0.053 1.013-0.171 1.5-0.331 1.76-0.576 3.872-1.54 4.644-3.346-0.153 0.082-0.306 0.164-0.459 0.245 0.316-0.54 0.686-1.052 1.109-1.515 0.060-0.064 0.114-0.181 0.039-0.228-0.021-0.014-0.050-0.014-0.075-0.025-0.089-0.039-0.071-0.167-0.085-0.263-0.082-0.533-2.382 0.011-2.695 0.242 0.473-0.352 1.024-0.594 1.604-0.704 0.32-0.060 0.644-0.082 0.96-0.153 0.046-0.011 0.096-0.025 0.128-0.057 0.060-0.068 0.025-0.185-0.046-0.238-0.057-0.039-0.572-0.188-0.615-0.16 0.185-0.117 0.384-0.21 0.59-0.274-0.149-0.018-0.288-0.078-0.402-0.178 0.263-0.014 0.526-0.064 0.779-0.139-0.338-0.206-0.718-0.341-1.113-0.398-0.171-0.025-0.348 0.007-0.512-0.014-0.107-0.014-0.224-0.1-0.334-0.085 0.455-0.064 0.924-0.121 1.369 0 0.562 0.149 1.056 0.572 1.604 0.715-0.174 0.245-0.267 0.558-0.274 0.853-0.011 0.494 0.334 1.049 0.871 1.006-1.806 2.332-3.833 4.686-6.645 5.493-0.775 0.22-1.696 0.306-2.453-0.050z"></path>
<path fill="#a29720" style="fill: var(--color20, #a29720)" opacity="0.68" d="M24.341 30.137c-0.11-0.053-0.203-0.11-0.288-0.167 2.066 0.761 4.281-0.455 5.867-1.785 0.473-0.395 0.932-0.814 1.351-1.266 0.555-0.597 0.924-1.269 1.358-1.948-0.526-0.028-0.999 0.306-1.419 0.622 0.231-0.345 0.633-0.53 0.924-0.821 0.071-0.071 0.142-0.178 0.1-0.27-0.068-0.146-0.334-0.107-0.377-0.26 0.092-0.078 0.185-0.156 0.277-0.235-0.046-0.053-0.11-0.089-0.178-0.096 0.068-0.196 0.373-0.26 0.38-0.466 0.004-0.135-0.128-0.231-0.256-0.274s-0.27-0.068-0.359-0.164c0.224-0.039 0.452-0.043 0.676-0.004-0.114-0.018-0.302-0.508-0.455-0.59 0.302 0.16 0.597 0.334 0.907 0.412-0.174 0.245-0.267 0.558-0.274 0.853-0.011 0.494 0.334 1.049 0.871 1.006-1.806 2.332-3.833 4.686-6.645 5.493-0.782 0.228-1.703 0.313-2.46-0.043z"></path>
<path fill="#8a720b" style="fill: var(--color21, #8a720b)" opacity="0.75" d="M24.341 30.137c-0.11-0.053-0.203-0.11-0.288-0.167 2.066 0.761 4.281-0.455 5.867-1.785 0.882-0.74 1.643-1.383 2.226-2.389 0.192-0.327 0.38-0.654 0.572-0.981 0.014-0.025 0.032-0.053 0.036-0.085 0.011-0.075-0.064-0.142-0.139-0.156s-0.153 0.011-0.224 0.036c0.078-0.053 0.16-0.11 0.206-0.192s0.046-0.199-0.028-0.26c-0.057-0.046-0.135-0.046-0.206-0.046-0.245 0.004-0.491 0.004-0.736 0.007 0.284-0.117 0.569-0.235 0.853-0.352-0.085-0.082-0.071-0.22-0.071-0.338 0-0.121-0.053-0.27-0.171-0.274 0.107-0.039 0.21-0.078 0.316-0.117-0.050-0.117-0.103-0.224-0.114-0.348 0.036 0.014 0.38 0.171 0.398 0.142-0.174 0.245-0.267 0.558-0.274 0.853-0.011 0.494 0.334 1.049 0.871 1.006-1.806 2.332-3.833 4.686-6.645 5.493-0.772 0.224-1.692 0.309-2.45-0.046z"></path>
<path fill="#bfb939" style="fill: var(--color17, #bfb939)" opacity="0.34" d="M24.988 25.86c0.356-0.505 0.807-0.953 1.369-1.212-0.658 0.615-1.223 1.326-1.689 2.094-0.060 0.103-0.121 0.203-0.178 0.306-0.050 0.092-0.128 0.167-0.174 0.256-0.149 0.295-0.267 0.604-0.352 0.924-0.018 0.068-0.036 0.135-0.075 0.188 0.032-0.046 0.011-0.242 0.021-0.306 0.018-0.117 0.046-0.235 0.082-0.348 0.071-0.21 0.203-0.384 0.284-0.583 0.188-0.459 0.423-0.907 0.711-1.319z"></path>
<path fill="#bfb939" style="fill: var(--color17, #bfb939)" opacity="0.34" d="M26.4 23.591c0.466-0.402 1.017-0.725 1.621-0.843-0.786 0.437-1.508 0.985-2.148 1.618-0.085 0.085-0.167 0.167-0.249 0.256-0.071 0.075-0.167 0.128-0.231 0.203-0.217 0.249-0.405 0.523-0.569 0.811-0.032 0.060-0.068 0.121-0.117 0.164 0.043-0.036 0.071-0.231 0.092-0.292 0.046-0.11 0.1-0.217 0.164-0.316 0.121-0.185 0.292-0.32 0.42-0.498 0.302-0.398 0.636-0.775 1.017-1.102z"></path>
<path fill="#bfb939" style="fill: var(--color17, #bfb939)" opacity="0.34" d="M24.594 27.499c0.284-0.363 0.644-0.683 1.074-0.86-0.516 0.437-0.971 0.946-1.348 1.504-0.046 0.071-0.096 0.146-0.142 0.22-0.043 0.068-0.103 0.121-0.139 0.185-0.121 0.213-0.22 0.441-0.295 0.672-0.014 0.050-0.032 0.096-0.064 0.139 0.025-0.032 0.014-0.178 0.025-0.224 0.018-0.085 0.043-0.171 0.075-0.252 0.060-0.153 0.167-0.277 0.235-0.423 0.156-0.341 0.348-0.665 0.58-0.96z"></path>
<path fill="#bfb939" style="fill: var(--color17, #bfb939)" opacity="0.34" d="M29.479 27.147c-0.324 0.373-0.722 0.697-1.191 0.86 0.576-0.441 1.088-0.964 1.522-1.54 0.057-0.075 0.114-0.153 0.167-0.231 0.046-0.071 0.117-0.124 0.16-0.188 0.142-0.224 0.26-0.462 0.356-0.708 0.018-0.050 0.039-0.103 0.075-0.146-0.032 0.036-0.028 0.192-0.039 0.242-0.021 0.092-0.053 0.181-0.092 0.27-0.071 0.164-0.192 0.288-0.274 0.444-0.196 0.352-0.42 0.69-0.683 0.996z"></path>
<path fill="#fce1a7" style="fill: var(--color22, #fce1a7)" d="M12.415 21.702c-0.036 0.138-0.096 0.292-0.179 0.461-0.681 1.432 0.143 2.219 0.413 3.7 0.417 2.385 0.002 4.412-0.982 6.581-1.401 3.080-3.854 6.248-7.191 7.335-3.54 1.15-6.017-2.648-6.191-5.58-0.221-3.365 1.067-6.691 3.338-9.153 1.148-1.234 2.515-2.256 4.050-2.963 1.454-0.681 3.158-0.487 4.566-1.166 1.165-0.559 2.553-0.547 2.176 0.785z"></path>
<path fill="#f2cf91" style="fill: var(--color23, #f2cf91)" d="M9.073 34.17c-0.915 1.232-2.198 2.599-3.528 3.38-0.651 0.385-1.165 0.848-1.914 1.075-0.8 0.241-1.866 0.313-2.604-0.156-0.99-0.637-1.918-1.999-1.771-3.21 0.411 1.867 2.659 2.426 4.295 1.857 0.909-0.315 1.724-0.873 2.446-1.507 1.019-0.896 2.012-2.025 2.67-3.216 0.706-1.273 1.039-2.956 1.305-4.374 0.268-1.446 0.258-2.9 0.428-4.352 0.051-0.441 0.217-0.867 0.407-1.271 0.199-0.421 0.514-1.268 0.921-1.482 0.048 0.042 0.043 0.090 0.031 0.148-0.087 0.377-0.356 0.743-0.496 1.111-0.4 1.058-0.254 1.975-0.116 3.069 0.053 0.4 0.102 0.805 0.118 1.205 0.053 1.392-0.265 2.773-0.578 4.12-0.283 1.22-0.826 2.55-1.615 3.602z"></path>
<path fill="#f2cf91" style="fill: var(--color23, #f2cf91)" d="M0.141 38.544c0.409 0.236 0.882 0.473 1.646 0.596 1.209 0.184 1.77-0.021 2.921-0.53 2.584-1.13 4.635-3.487 5.803-5.963 0.695-1.467 0.947-3.125 1.048-4.747 0.16-2.58-0.504-3.543-0.204-5.144 0.102-0.542 0.862-1.871 0.221-2.182 0.634-0.003 1.066 0.318 0.834 1.134-0.036 0.138-0.096 0.292-0.179 0.461-0.681 1.432 0.143 2.219 0.413 3.7 0.417 2.385 0.002 4.412-0.982 6.581-1.401 3.080-3.854 6.248-7.191 7.335-1.757 0.564-3.248-0.086-4.332-1.241z"></path>
<path fill="#fff5ca" style="fill: var(--color24, #fff5ca)" opacity="0.34" d="M9.88 23.765c-0.206 0.583-0.338 1.202-0.454 1.881-0.509 2.907-1.361 5.805-3.012 8.248-0.984 1.453-4.793 4.692-6.213 2.069-0.762-1.41-0.526-3.454-0.162-4.953 0.597-2.494 2.176-5.204 4.279-6.72 0.597-0.43 1.277-0.74 1.954-1.045 1.247-0.562 2.615-0.315 3.725-1.232 0.29-0.238 1.526-0.857 0.866-0.029-0.462 0.573-0.764 1.16-0.983 1.779z"></path>
<path fill="#ecbb70" style="fill: var(--color25, #ecbb70)" opacity="0.72" d="M0.514 38.905c0.714 0.412 1.417 0.716 2.347 0.652 2.386-0.158 4.634-1.989 6.106-3.782 1.817-2.217 2.591-4.349 2.942-6.782 0.183-1.285 0.003-2.961-0.3-4.185-0.405-1.639 0.385-2.189 0.459-3.776 0.004-0.157-0.039-0.298-0.116-0.415 0.413 0.115 0.636 0.447 0.457 1.082-0.036 0.138-0.096 0.292-0.179 0.461-0.681 1.432 0.143 2.219 0.413 3.7 0.417 2.385 0.002 4.412-0.982 6.581-1.401 3.080-3.854 6.248-7.191 7.335-1.559 0.512-2.912 0.050-3.956-0.871z"></path>
<path fill="#ecbb70" style="fill: var(--color25, #ecbb70)" d="M11.335 26.163c0.015 0.276 0.021 0.555 0.013 0.833-0.014 0.325-0.061 0.646-0.113 0.963-0.236 1.465-0.455 3.178-1.116 4.512-0.706 1.425-1.634 2.743-2.791 3.828-0.507 0.475-2.404 2.327-4.755 2.563-0.632 0.063-1.465-0.18-2.168-0.774-0.711-0.606-1.132-1.588-1.323-2.502-0.595-2.857-0.198-5.959 1.42-8.436 0.944-1.447 2.26-2.758 3.709-3.682 1.15-0.734 2.282-1.261 3.644-1.329 0.636-0.031 1.212-0.401 1.772-0.73 0.49-0.282 1.015-0.602 1.598-0.504-0.748 0.075-1.355 0.623-2.008 1.013-1.536 0.924-2.572 0.152-5.006 1.89-1.532 1.093-2.687 2.628-3.581 4.291-0.411 0.762-0.806 1.548-1.033 2.38-0.463 1.746-0.352 3.592 0.18 5.311 0.133 0.424 0.294 0.836 0.558 1.184 0.45 0.579 1.175 0.896 1.903 0.969 0.591 0.059 1.218-0.021 1.786-0.2 4.913-1.502 7.348-7.381 6.817-12.172-0.092-0.835-0.266-1.703-0.029-2.516 0.214-0.724 0.738-1.341 0.892-2.085-0.037 0.58-0.335 0.958-0.498 1.479-0.114 0.361-0.092 0.838-0.086 1.218 0.013 0.833 0.164 1.666 0.216 2.493z"></path>
<path fill="#c59c5f" style="fill: var(--color26, #c59c5f)" d="M-0.707 34.528c-0.206-1.039-0.208-2.307-0.009-3.344 0.362-1.898 1.14-3.622 2.335-5.126 0.925-1.161 2.721-2.789 4.385-3.342 0.942-0.311 1.797-0.346 2.747-0.645 0.25-0.080 0.626-0.305 0.874-0.408-0.132 0.090-0.261 0.175-0.395 0.257-1.536 0.924-2.572 0.152-5.006 1.89-1.532 1.093-2.687 2.628-3.581 4.291-0.411 0.762-0.806 1.548-1.033 2.38-0.477 1.745-0.366 3.591 0.166 5.31 0.066 0.212 0.142 0.408 0.232 0.604-0.061-0.057-0.533-0.988-0.715-1.868z"></path>
<path fill="#c59c5f" style="fill: var(--color26, #c59c5f)" d="M1.2 38.598c1.090 0.187 2.232 0.021 3.361-0.45 0.959-0.403 3.392-2.315 5.264-5.42 0.989-1.638 1.396-5.488 1.374-6.167 0.094-0.779-0.723-2.938 0.091-4.561 0.136-0.262 0.264-0.521 0.351-0.797 0.016-0.027 0.031-0.054 0.047-0.081-0.074 0.493-0.326 0.855-0.481 1.323-0.114 0.361-0.092 0.838-0.086 1.218 0.010 0.838 0.161 1.672 0.213 2.499 0.015 0.276 0.021 0.555 0.013 0.833-0.014 0.325-0.061 0.646-0.113 0.963-0.236 1.465-0.455 3.178-1.116 4.512-0.706 1.425-1.634 2.743-2.791 3.828-0.507 0.475-2.404 2.327-4.755 2.563-0.408 0.040-0.896-0.046-1.373-0.264z"></path>
<path fill="#fff5ca" style="fill: var(--color24, #fff5ca)" opacity="0.51" d="M1.233 28.036c0.868-1.628 2.095-3.063 3.546-3.841 0.75-0.393 1.966-1.103 2.843-0.987 0.991 0.145 1.036 1.25 0.499 1.903-0.74 0.891-1.853 1.537-2.639 2.395-0.826 0.877-1.545 1.846-2.103 2.9-0.161 0.291-0.311 0.588-0.439 0.898-0.35 0.783-0.636 1.567-0.881 2.381-0.164 0.485-0.324 1.392-0.918 1.527-1.423 0.301-1.204-1.941-1.15-2.801 0.054-1.403 0.504-2.961 1.24-4.375z"></path>
<path fill="#fffae6" style="fill: var(--color27, #fffae6)" opacity="0.66" d="M3.246 28.235c-0.734 1.22-1.326 2.523-1.868 3.839-0.142 0.36-0.392 1.548-0.974 1.422-0.523-0.114-0.344-1.14-0.286-1.505 0.388-2.521 1.906-4.723 3.567-6.668 0.269-0.315 2.519-1.884 2.384-0.557-0.043 0.402-1.202 1.24-1.481 1.571-0.5 0.602-0.94 1.239-1.342 1.897z"></path>
<path fill="#fffae6" style="fill: var(--color27, #fffae6)" opacity="0.51" d="M9.304 34.449c-0.027 0.035-0.058 0.075-0.099 0.095s-0.102 0.013-0.122-0.027c-0.020-0.041-0.004-0.082 0.013-0.123 0.243-0.547 0.59-1.035 0.861-1.567 0.328-0.644 0.532-1.337 0.719-2.026 0.094-0.351 0.185-0.697 0.284-1.046 0.043-0.149 0.162-0.884 0.39-0.789 0.176 0.073 0.039 0.486 0.020 0.62-0.053 0.331-0.121 0.662-0.202 0.991-0.171 0.662-0.401 1.311-0.685 1.929-0.336 0.682-0.726 1.333-1.179 1.941z"></path>
<path fill="#fffae6" style="fill: var(--color27, #fffae6)" opacity="0.51" d="M5.624 22.532c-0.456 0.186-0.861 0.473-1.277 0.74-1.601 1.024-2.807 2.182-3.818 3.821-0.068 0.105-0.178 0.194-0.268 0.287-0.024 0.029-0.066 0.063-0.102 0.050-0.052-0.023-0.033-0.106 0.001-0.152 0.569-0.91 1.171-1.764 1.937-2.525 0.718-0.715 1.555-1.449 2.446-1.934 0.609-0.387 1.316-0.682 2.007-0.898 0.674-0.212 1.441-0.232 2.138-0.344 0.071-0.010 0.137-0.023 0.206-0.004 0.005 0.054-0.039 0.093-0.086 0.124-0.438 0.305-1.086 0.358-1.603 0.436-0.534 0.069-1.079 0.195-1.581 0.398z"></path>
<path fill="#ccea86" style="fill: var(--color10, #ccea86)" opacity="0.2" d="M15.353 5.94c-0.040 0-0.072-0.005-0.104-0.010-0.006 0.003-0.010 0.004-0.016 0.007 0.044 0.010 0.082 0.012 0.12 0.003z"></path>
<path fill="#ccea86" style="fill: var(--color10, #ccea86)" opacity="0.2" d="M17.042 7.001c-0.281-0.141-0.589-0.124-0.777-0.435-0.118-0.197-0.053-0.449-0.252-0.613-0.206-0.17-0.565-0.142-0.766-0.023-0.277-0.062-0.247-0.379-0.45-0.554-0.159-0.14-0.444-0.149-0.62-0.276-0.386-0.281-0.439-0.9-0.819-1.139-0.409-0.254-0.848 0.101-1.227 0.057-0.338-0.041-0.496-0.374-0.822-0.442-0.398-0.084-0.609 0.266-0.94 0.205-0.517-0.094-0.93-0.322-1.47-0.338-0.325-0.010-0.6 0.042-0.871 0.128-0.091-0.094-0.182-0.188-0.278-0.275-0.24-0.223-0.599-0.426-0.892-0.565-0.032-0.016-0.070-0.028-0.112-0.040-0.067-0.142 0.014-0.231 0.438-0.219 0.557 0.018 0.96 0.314 1.449 0.503 0.495 0.189 1.029 0.194 1.559 0.229 0.502 0.029 1 0.109 1.497 0.17 3.234 0.382 5.723 3.052 7.503 5.555 0.057 0.077 0.109 0.154 0.164 0.233-0.452-0.566-0.994-1.056-1.534-1.534-0.247-0.224-0.488-0.48-0.781-0.625z"></path>
<path fill="#ccea86" style="fill: var(--color10, #ccea86)" opacity="0.25" d="M11.329 13.327c0.231 0.281 0.499 0.481 0.743 0.743 0.255 0.273 0.3 0.687 0.601 0.911 0.246 0.18 0.616 0.197 0.89 0.297 0.387 0.144 0.738 0.368 1.13 0.515 0.374 0.142 0.743 0.281 1.127 0.384 0.215 0.057 0.618 0.285 0.832 0.273 0.177-0.010 0.276-0.022 0.306-0.26 0.066-0.483-0.619-0.765-0.945-0.888-0.612-0.227-1.305-0.241-1.836-0.647-0.425-0.323-0.711-0.792-0.991-1.231-0.384-0.6-0.786-1.235-1.208-1.812-0.396-0.544-0.915-0.83-1.229-1.452-0.141-0.281-0.299-0.453-0.451-0.688-0.171-0.264-1.249-3.067-1.627-2.675-0.313 0.32 0.556 1.863 0.695 2.237 0.31 0.824 0.769 1.641 0.972 2.493 0.165 0.695 0.543 1.252 0.993 1.801z"></path>
</symbol>
<symbol id="icon-seeds_right" viewBox="0 0 41 32">
<path fill="#ffc40c" style="fill: var(--color1, #ffc40c)" d="M39.258 13.031c-0.64 0.448-1.351 0.748-2.013 0.623-0.635-0.115-1.204-0.645-1.649-1.064-0.913-0.882-1.417-1.398-2.040-2.467-0.49-0.844-1.050-1.688-1.315-2.642-0.234-0.816-0.109-1.699-0.513-2.461-0.506-0.951-0.479-1.107 0.565-1.357 3.281-0.802 5.31-0.658 8.284 1.050 1.363 0.789 2.272 1.432 1.964 3.050-0.244 1.277-0.925 2.734-1.714 3.757-0.386 0.48-0.937 1.071-1.568 1.511z"></path>
<path fill="#fffa50" style="fill: var(--color2, #fffa50)" d="M38.227 10.311c0.623-0.54 1.179-1.214 1.372-1.744 0.437-1.172-1.353-2.167-2.233-2.447-1.209-0.385-2.513-0.729-3.752-1.003 0.535-0.148 1.089-0.223 1.651-0.236 1.211-0.033 2.435 0.050 3.597 0.301 1.26 0.272 2.838 0.62 2.962 2.223 0.083 1.15-0.376 2.107-0.826 3.123-0.45 1.001-1.678 1.784-2.701 2.087-0.254 0.079-0.536 0.067-0.835 0.008-1.539-0.318-2.125-1.465-2.728-2.783-0.202-0.452-0.321-0.949-0.573-1.373-0.269-0.461-0.738-1.045-1.064-1.623 0.699 0.491 1.29 1.388 1.793 2.060 0.415 0.555 0.831 1.134 1.374 1.569 0.759 0.614 1.247 0.444 1.965-0.162z"></path>
<path fill="#ef9818" style="fill: var(--color3, #ef9818)" d="M37.245 13.655c-0.635-0.115-1.204-0.645-1.649-1.064-0.913-0.882-1.417-1.398-2.040-2.467-0.49-0.844-1.050-1.688-1.315-2.642-0.112-0.394-0.142-0.808-0.188-1.218 0.064 0.225 0.129 0.445 0.227 0.643 0.344 0.735 0.684 1.51 1.175 2.158 0.007 0.008 0.014 0.015 0.017 0.021 0.73 1.37 1.811 2.697 2.913 2.977 1.855 0.469 3.849-0.847 4.615-2.55 1.105-2.442-0.483-4.114-2.804-4.793-2.011-0.591-4.672-1.217-6.726-0.468-0.025 0.001-0.040 0-0.061 0.003-0.033-0.309 0.217-0.43 0.882-0.591 3.281-0.802 5.31-0.658 8.284 1.050 1.363 0.789 2.272 1.432 1.964 3.050-0.244 1.277-0.925 2.734-1.714 3.757-0.377 0.483-0.932 1.072-1.56 1.515-0.653 0.443-1.36 0.745-2.021 0.62z"></path>
<path fill="#78af02" style="fill: var(--color4, #78af02)" d="M44.566 42.336c-0.48 1.262-0.915 2.5-1.453 3.741-0.416 0.963-0.258 2.009-0.725 2.938-0.603 1.199-1.246 0.84-2.569 0.612-1.589-0.27-3.153-0.619-4.732-0.888-2.125-0.362-4.246-1.234-6.003-2.49-3.46-2.472-6.003-5.905-7.74-9.776-3.239-7.231-3.432-16.403-1.085-23.935 0.518-1.673 1.175-4.117 0.652-5.864-0.367-1.233-1.692-2.939 0.466-2.101 1.274 0.498 1.964 1.516 2.939 2.352 0.99 0.844 2.221 1.293 3.419 1.809 1.138 0.479 2.224 1.072 3.324 1.621 7.168 3.537 10.735 11.757 12.798 19.008 1.217 4.258 2.326 8.688 0.707 12.974z"></path>
<path fill="#a3ce24" style="fill: var(--color5, #a3ce24)" opacity="0.42" d="M36.65 49.037c-0.519-0.104-1.043-0.204-1.559-0.291-2.125-0.362-4.246-1.234-6.003-2.491-3.46-2.472-6.003-5.905-7.74-9.776-3.243-7.237-3.436-16.409-1.089-23.941 0.518-1.673 1.175-4.117 0.652-5.864-0.367-1.233-1.692-2.939 0.466-2.101 0.971 0.376 1.606 1.064 2.281 1.733 0.898 1.897 0.911 3.981 1.622 6.025 0.293 0.838 0.649 1.615 0.87 2.486 0.054 0.216 0.229 2.66 0.134 2.586-1.218-0.984-1.799-2.261-2.353-3.688-0.476-1.227-0.944-3.45-2.125-4.179-2.194 2.172 0.939 5.887 1.701 7.915-1.122-0.997-1.488-2.582-2.52-3.651 0.159 0.922-0.648 1.965-0.58 2.995 0.074 1.052 0.57 1.828 1.379 2.5 1.269 1.070 2.488 2.018 3.867 2.767 1.463 0.795 3.322 0.887 4.279 2.428-1.428 0.73-3.945-1.242-5.032-1.975-0.622-0.417-5.19-3.94-5.058-4.154-2.472 4.064 3.202 8.185 6.255 9.302 1.018 0.369 2.075 0.642 3.104 0.977 0.532 0.173 2.194 1.154 2.667 1.053-3.559 0.775-7.44-1.282-10.061-3.505-0.61-0.513-1.19-1.108-1.892-1.399-2.556 2.722 1.81 5.238 3.779 6.155 1.616 0.751 3.147 1.858 4.862 2.373 1.23 0.371 2.601 0.101 3.842 0.376-1.74 0.596-3.991 0.191-5.707-0.35-2.057-0.654-3.791-2.444-5.92-2.837-1.010 1.218 1.272 4.325 2.11 5.178 1.623 1.656 4.396 2.522 6.522 3.312 1.201 0.444 2.561 0.322 3.824 0.337 0.752 0.012 2.802 0.618 3.394 0.399-1.355 0.495-3.136 0.35-4.55 0.167-0.904-0.116-1.81-0.248-2.695-0.464-0.786-0.198-1.772-0.887-2.535-0.952-2.097-0.171-1.414 1.631-0.261 2.396 2.559 1.68 5.195 2.65 8.171 3.129-1.48-0.241-2.826-0.023-4.404-0.529-1.571-0.51-2.833-1.595-4.537-1.855-0.54 1.794 5.285 4.443 6.466 4.996 1.373 0.64 2.824 0.926 4.323 0.979 0.786 0.023 2.301-0.33 3.275-0.201 0.272 0.039 0.497 0.11 0.649 0.241s-2.896 1.251-3.25 1.295c-0.207 0.030-0.42 0.064-0.622 0.1z"></path>
<path fill="#a3ce24" style="fill: var(--color5, #a3ce24)" opacity="0.42" d="M29.088 46.255c-3.46-2.472-6.003-5.905-7.74-9.776-3.243-7.237-3.436-16.409-1.089-23.941 0.518-1.673 1.175-4.117 0.652-5.864-0.367-1.233-1.692-2.939 0.466-2.101 1.222 0.473 1.902 1.427 2.815 2.237 0.664 1.044 1.138 2.116 1.115 3.419-0.002 0.098-0.006 0.206-0.014 0.307-0.153 2.199-1.469 1.187-2.866 1.23-2.207 0.063-0.676 2.693 0.19 3.738 0.723 0.864 2.526 1.606 2.694 2.768-1.84 0.552-3.245-1.457-4.563-2.459-1.596 2.781 2.912 5.261 5.115 5.936 2.646 0.822 0.264 1.576-1.299 1.533-1.008-0.026-1.801-0.236-2.727-0.635-0.662-0.284-1.549-0.919-2.21-0.925 0.979 1.85 2.21 3.306 4.029 4.563 0.94 0.66 2.271 1.504 3.374 1.945 0.979 0.388 2.28 0.333 2.984 1.183-0.64 1.119-3.808 0.353-4.782 0.049-2.343-0.727-3.874-1.782-5.79-3.217-0.309 0.915 0.551 2.393 1.094 3.136 0.788 1.072 2.122 1.554 3.259 2.183 1.329 0.74 2.728 1.519 4.199 1.897 0.894 0.228 3.304-0.020 3.837 0.634-0.874 0.984-3.285 1.031-4.513 1.052-2.187 0.040-4.485-0.936-6.115-2.387-0.254 0.781 1.17 2.452 1.684 3.041 2.659 3.020 6.759 3.603 10.636 3.727 0.95 0.031 2.169-0.256 1.176 0.986-0.545 0.676-1.437 0.893-2.301 0.934-2.61 0.15-4.921-1.475-7.34-2.096 0.955 0.921 2.128 2.041 3.349 2.602 1.838 1.524 4.845 1.151 6.6 2.593-1.62 0.566-3.204 0.265-4.743-0.425-1.014-0.451-2.089-1.709-3.206-1.817-1.141-0.118-1.172 0.543-0.53 1.392 1.079 1.439 3.345 1.764 4.819 2.639 0.668 0.394 1.041 0.301 0.428 1.095-0.060 0.077-0.141 0.15-0.229 0.212-0.867-0.378-1.698-0.842-2.462-1.388z"></path>
<path fill="#6d9e02" style="fill: var(--color6, #6d9e02)" d="M35.091 48.746c-2.125-0.362-4.246-1.234-6.003-2.491-0.307-0.215-0.599-0.459-0.889-0.687 0.376 0.238 0.743 0.464 1.079 0.633 1.746 0.888 4.505 1.86 6.469 1.309 0.452-0.13 0.849-0.353 1.184-0.665 1.144-1.075-0.54-2.163-1.424-2.565-1.444-0.642-3.164-0.673-4.696-1-1.855-0.401-4.738-1.803-6.21-3.669 2.591 2.166 9.621 5.404 11.889 1.99 0.107-0.161 0.134-0.4-0.038-0.534-1.717-1.249-3.768-1.076-5.776-1.546-1.919-0.444-6.95-2.857-7.615-3.524 2.716 1.352 6.301 2.301 9.062 1.853 1.656-0.275 1.279-2.316 0.286-3.141-1.364-1.144-3.422-0.931-5.045-1.616-1.85-0.772-3.629-1.619-5.331-2.669-0.452-0.272-0.846-0.638-1.264-0.987-0.776-0.651-1.505-1.423-1.59-2.476 0.86 1.679 2.624 2.528 4.228 3.287 1.753 0.822 3.5 1.647 5.5 1.238 0.691-0.139 2.786-0.526 2.517-1.644-0.232-0.977-2.702-1.519-3.522-1.755-1.801-0.5-3.244-1.317-4.847-2.226-1.43-0.81-2.385-1.731-3.12-3.242 1.581 1.834 3.74 2.925 6.046 3.547 1.099 0.296 3.713 0.493 3.303-1.446-0.334-1.615-2.707-2.006-3.978-2.462-1.91-0.669-3.558-2.5-4.847-3.977 1.002 0.547 1.812 1.411 2.895 1.823 0.566 0.21 1.73 0.663 2.296 0.532 1.257-0.296 0.197-1.065-0.318-1.504-1.466-1.24-2.47-2.547-3.43-4.192-0.782-1.339-0.987-2.667-0.923-4.2-0.007 1.703 0.98 2.847 1.933 4.129 0.708 0.944 1.55 2.293 2.961 2.057 0.314-0.052 0.476-0.322 0.76-0.292 0.508 0.050 0.75 0.6 1.004 0.966 0.238 0.342 0.545 0.558 0.803 0.878 0.644 0.813 0.217 1.837 0.365 2.767 0.169 1.012 0.714 1.947 1.131 2.874 0.519 1.163 1.026 2.334 1.535 3.494 0.999 2.282 1.985 4.583 2.995 6.867 1.34 3.061 2.62 6.138 3.787 9.266 0.826 2.209 1.51 3.521 3.359 4.897 0.168 0.128 0.42 0.303 0.702 0.519-0.571 0.992-1.222 0.674-2.474 0.458-1.607-0.258-3.171-0.606-4.75-0.875z"></path>
<path fill="#61a304" style="fill: var(--color7, #61a304)" d="M37.346 44.998c-1-1.476-1.805-3.088-2.688-4.637-1.943-3.413-4.125-6.956-5.39-10.691-1.303-3.84-2.632-7.591-3.649-11.525-0.949-3.683-1.833-7.84-3.599-11.2-0.373-0.713-1.036-1.478-1.601-2.039-0.061-0.063-0.138-0.123-0.225-0.185-0.039-0.384 0.223-0.523 1.194-0.147 1.274 0.498 1.964 1.516 2.939 2.352 0.99 0.844 2.221 1.293 3.419 1.809 1.138 0.479 2.224 1.072 3.324 1.621 7.168 3.537 10.735 11.757 12.798 19.008 1.211 4.262 2.32 8.692 0.697 12.972-0.48 1.262-0.915 2.501-1.453 3.742-0.416 0.963-0.258 2.009-0.725 2.938-0.25 0.498-0.507 0.72-0.82 0.797-1.583-1.395-2.953-2.938-4.221-4.815z"></path>
<path fill="#468e02" style="fill: var(--color8, #468e02)" opacity="0.6" d="M22.010 6.944c-0.373-0.713-1.036-1.478-1.601-2.039-0.061-0.063-0.138-0.123-0.225-0.185-0.039-0.384 0.223-0.523 1.194-0.147 0.092 0.032 0.177 0.078 0.258 0.119-0.055 0.047-0.102 0.106-0.126 0.184-0.122 0.391 0.431 1.023 0.64 1.324 0.343 0.506 0.502 1.025 0.701 1.588 0.712 1.983 1.198 4.017 1.915 6.006 0.371 1.038 0.773 4.69 1.834 5.196 0.962 0.452 0.896-0.877 0.944-1.715 0.055-0.966-0.257-1.616-0.37-2.536-0.117-0.987-0.029-1.994-0.283-2.964-0.308-1.161-0.773-2.107-1.218-3.189 1.139 0.959 1.439 3.255 1.749 4.659 0.439 1.98 0.613 3.881 0.435 5.879-0.138 1.628-0.308 2.971 0.35 4.51 0.109 0.257 0.206 0.864 0.558 0.803 0.481-0.089 0.558-1.062 0.74-1.416 0.391-0.71 0.818-1.33 1.128-2.106 0.544-1.359 0.881-2.827 1.332-4.218 0.388-1.206 0.536-2.693 0.308-3.953 0.525 2.935 0.383 5.565-0.862 8.321-0.402 0.883-0.656 1.865-1.1 2.726-0.458 0.878-0.905 1.784-0.795 2.811 0.106 0.959 0.588 1.955 0.945 2.872 0.485 1.265 1.028 1.001 1.707 0.013 1.166-1.686 1.636-3.667 2.65-5.396 0.925-1.579 1.043-3.728 1.468-5.485 0.355-1.429 0.379-2.767 0.215-4.063 0.035 0.037 0.069 0.074 0.104 0.112 0.039 0.043 0.077 0.086 0.114 0.139 1.052 2.824 0.108 5.913-0.527 8.841-0.106 0.301-0.218 0.606-0.329 0.912-0.712 1.835-1.464 3.688-2.032 5.58-0.397 1.318-1.050 2.621-0.145 3.874 0.34 0.464 0.908 1.041 1.509 0.798 0.279-0.115 0.581-0.474 0.766-0.699 1.732-2.106 2.487-4.924 3.517-7.399 0.646-1.552 1.233-3.151 1.693-4.783 0.012 0.018 0.019 0.040 0.025 0.061 0.004 0.006 0.008 0.012 0.006 0.022 0.41 1.939-0.32 3.847-0.897 5.675-0.299 0.943-0.55 1.993-0.975 2.893-0.387 0.829-0.734 1.666-1.111 2.496-0.557 1.227-1.135 2.347-1.561 3.624-0.564 1.67-1.042 4.497 0.885 5.531 1.258 0.676 2.796-1.444 3.461-2.239 1.519-1.808 2.333-4.467 3.040-6.7 0.158-0.504 0.306-1.009 0.443-1.516 0.065 0.27 0.134 0.546 0.195 0.81 0.152 0.647-0.237 1.662-0.326 2.328-0.125 0.928-0.763 1.774-1.127 2.648-0.717 1.715-1.622 3.876-2.902 5.247-0.557 0.597-2.258 2.76-0.474 3.009 1.83 0.252 3.663-1.784 4.623-3.326-0.455 1.209-0.883 2.408-1.398 3.607-0.416 0.963-0.259 2.009-0.725 2.938-0.25 0.498-0.506 0.72-0.82 0.798-1.39-1.232-2.609-2.582-3.746-4.156-1.024-1.6-2.001-3.232-2.938-4.883-0.078-0.138-0.157-0.276-0.235-0.414-0.105-0.189-0.217-0.375-0.322-0.564-0.347-0.626-0.704-1.253-1.045-1.882-1.257-2.287-2.616-4.634-3.591-7.082-0.153-0.384-0.3-0.772-0.431-1.162-1.303-3.84-2.632-7.591-3.649-11.525-0.548-2.123-1.035-4.437-1.771-6.631-0.46-1.607-1.042-3.163-1.79-4.578z"></path>
<path fill="#a3ce24" style="fill: var(--color5, #a3ce24)" opacity="0.31" d="M40.828 44.277c-0.385-0.906 1.575-3.503 2-4.253 1.673-2.922 2.491-5.574 1.052-8.829-0.442-0.989-0.886-1.678-1.777-0.718-1.116 1.204-1.949 4.629-2.389 6.187-0.213 0.752-1.177 5.072-2.584 3.564-0.754-0.807 0.3-3.246 0.535-4.119 0.55-2.019 1.177-3.926 2.18-5.796 0.614-1.145 2.105-2.942 2.125-4.261 0.028-1.622-2.581-4.772-3.58-2.153-0.72 1.875-1.336 3.747-2.148 5.59-0.273 0.628-1.724 4.586-2.414 3.455-0.48-0.779 0.562-3.096 0.764-3.928 0.521-2.122 1.127-4.425 1.97-6.438 0.526-1.259 1.553-3.259 0.263-4.447-0.975-0.899-1.615 0.107-2.099 0.898-1.21 1.988-1.429 5.502-3.386 6.958-1.573 1.163-0.99-0.958-0.762-1.992 0.322-1.476 0.866-2.887 1.35-4.318 0.386-1.17 1.641-4.353-0.29-4.877-0.625 1.003-0.8 4.732-2.522 4.686-1.018-0.028-0.288-2.19-0.277-2.767 0.046-1.748-0.233-5.538-1.933-6.51-1.628 1.324 1.104 4.398-0.392 5.849-1.13-1.071-1.477-2.642-1.949-4.065-0.432-1.302-1.193-2.725-2.041-3.983-0.167-0.366-0.335-0.721-0.519-1.075-0.373-0.713-1.036-1.478-1.601-2.039-0.061-0.063-0.138-0.123-0.225-0.185-0.039-0.384 0.223-0.523 1.194-0.147 1.274 0.498 1.964 1.516 2.939 2.352 0.99 0.844 2.221 1.293 3.419 1.809 1.138 0.479 2.224 1.072 3.324 1.621 7.168 3.537 10.735 11.757 12.798 19.008 1.018 3.582 1.959 7.279 1.27 10.91-0.263 0.402-0.695 0.65-1.451 0.57 0.111 0.903-2.227 4.883-2.845 3.44z"></path>
<path fill="#4a8209" style="fill: var(--color9, #4a8209)" d="M23.759 11.262c-0.043-0.137-0.085-0.274-0.134-0.406 0.997 1.548 1.524 4.045 2.039 5.718 0.428 1.384 0.412 3.654 1.207 4.861 0.677-1.092 0.638-3.289 0.546-4.582 0.53 1.531 0.415 3.091 0.248 4.678-0.149 1.487-0.324 3.149 0.858 4.271 1.298-0.639 1.475-2.741 2.225-3.84-0.186 2.038-1.627 4.563-1.679 5.369-0.078 1.148 1.913 4.554 2.918 5.257 0.412-0.566 0.346-1.518 0.558-2.209 0.216-0.71 0.594-1.376 0.749-2.097 0.043 1.712-0.436 3.052-0.695 4.694-0.276 1.732 0.624 3.418 1.501 4.831 2.191-1.269 2.37-4.527 4.172-6.104 0.163 1.331-1.085 2.961-1.597 4.139-0.542 1.261-1.086 2.506-0.999 3.942 0.069 1.107 0.474 2.647 1.654 3.035 1.232 0.413 3.028-1.010 3.801-1.862-0.581 1.419-2.929 2.526-2.736 4.239 0.152 1.365 1.238 1.932 2.536 1.722 1.171-0.192 1.856-1.097 2.593-1.925-0.142 0.362-0.281 0.73-0.44 1.094-0.416 0.963-0.258 2.009-0.725 2.938-0.25 0.498-0.506 0.72-0.82 0.798-0.935-0.83-1.792-1.722-2.601-2.684-1.785-3.085-3.822-6.055-5.671-9.13-1.538-2.679-3.059-5.447-4.032-8.334-1.303-3.84-2.632-7.591-3.649-11.525-0.545-2.107-1.074-4.367-1.75-6.55-0.004-0.12-0.040-0.235-0.078-0.339z"></path>
<path fill="#ccea86" style="fill: var(--color10, #ccea86)" opacity="0.24" d="M20.705 31.673c0.248 1.605 0.676 3.19 1.432 4.757 2.176 4.529 8.273 10.859 13.951 9.618-0.063-1.804-3.763-4.433-4.887-5.849-2.87-3.626-4.624-8.089-5.993-12.478-1.297-4.159-0.386-10.395-4.047-13.445-2.201 1.469-1.31 5.095-1.090 7.175 0.344 3.481 0.113 6.89 0.634 10.223z"></path>
<path fill="#ccea86" style="fill: var(--color10, #ccea86)" opacity="0.2" d="M40.46 23.136c-0.535-0.556-1.261-0.769-1.44-1.643-0.112-0.552 0.246-1.082-0.079-1.626-0.338-0.562-1.19-0.793-1.752-0.682-0.59-0.37-0.26-1.080-0.586-1.65-0.254-0.454-0.905-0.71-1.209-1.147-0.663-0.966-0.279-2.442-0.959-3.308-0.738-0.923-2.045-0.461-2.885-0.876-0.749-0.372-0.84-1.272-1.539-1.697-0.852-0.52-1.627 0.115-2.343-0.298-1.119-0.64-1.888-1.507-3.124-1.988-0.743-0.289-1.422-0.395-2.12-0.418-0.133-0.293-0.267-0.585-0.418-0.865-0.373-0.713-1.036-1.478-1.601-2.039-0.061-0.063-0.138-0.123-0.225-0.185-0.039-0.384 0.223-0.523 1.194-0.147 1.274 0.498 1.964 1.516 2.939 2.352 0.99 0.844 2.221 1.293 3.419 1.809 1.138 0.479 2.224 1.072 3.324 1.621 7.168 3.537 10.735 11.757 12.798 19.008 0.068 0.224 0.126 0.446 0.188 0.674-0.581-1.68-1.433-3.259-2.291-4.808-0.387-0.72-0.735-1.511-1.293-2.087z"></path>
<path fill="#ccea86" style="fill: var(--color10, #ccea86)" opacity="0.25" d="M22.25 32.945c0.27 0.863 0.724 1.545 1.050 2.37 0.339 0.859-0.006 1.93 0.505 2.696 0.42 0.619 1.333 0.912 1.915 1.348 0.815 0.624 1.453 1.424 2.276 2.061 0.784 0.611 1.561 1.209 2.415 1.728 0.479 0.289 1.241 1.134 1.794 1.249 0.456 0.094 0.719 0.131 1.058-0.447 0.7-1.169-0.712-2.342-1.399-2.871-1.291-0.985-3.021-1.49-3.908-2.87-0.712-1.098-0.915-2.472-1.134-3.764-0.303-1.768-0.613-3.636-1.038-5.372-0.395-1.634-1.386-2.705-1.489-4.481-0.043-0.802-0.252-1.34-0.374-2.034-0.14-0.778 0.25-8.552-1.137-7.825-1.142 0.592-0.663 5.057-0.726 6.090-0.133 2.281 0.12 4.644-0.312 6.923-0.355 1.858-0.017 3.514 0.506 5.199z"></path>
<path fill="#757575" style="fill: var(--color11, #757575)" d="M6.871 34.458c-0.421 0.661-1.121 0.926-1.876 1.063-0.868 0.157-1.422-0.156-1.861-0.936-0.634-1.144-0.886-2.668-1.164-3.943-0.21-0.962-0.371-2.101-0.363-3.073 0.004-0.371-0.127-0.882 0.057-1.225 0.575-1.082 3.663 2.193 4.072 2.641 1.371 1.503 2.347 3.571 1.135 5.472z"></path>
<path fill="#575959" style="fill: var(--color12, #575959)" d="M6.871 34.458c0.465-0.732 0.605-1.489 0.526-2.229-0.141 0.666-0.407 0.978-0.895 1.402-0.829 0.71-1.962-0.167-2.414-1.017-1.626-3.070-2.139-5.763-2.108-6.485-0.139 0.015-0.247 0.081-0.319 0.215-0.181 0.344-0.053 0.854-0.057 1.225-0.008 0.973 0.152 2.115 0.363 3.073 0.282 1.276 0.53 2.799 1.164 3.942 0.439 0.779 0.992 1.092 1.861 0.936 0.758-0.133 1.458-0.402 1.879-1.062z"></path>
<path fill="#d1d1d1" style="fill: var(--color13, #d1d1d1)" d="M7.203 33.784c-1.241-0.477-1.95-1.704-2.489-2.905-0.113-0.257-0.234-0.512-0.351-0.766 0.096 0.227 0.192 0.454 0.292 0.679 0.456 1.022 1.068 3.131 2.353 3.424 0.077-0.144 0.14-0.287 0.194-0.432z"></path>
<path fill="#d1d1d1" style="fill: var(--color13, #d1d1d1)" d="M3.894 31.102c-0.317-0.706-1.248-3.417-1.429-3.926-0.035-0.094-0.063-0.183-0.090-0.275 0.136 0.838 0.877 3.337 1.27 4.274 0.669 1.564 1.648 2.998 2.614 3.892 0.147-0.093 0.279-0.207 0.4-0.343-1.378-0.75-2.199-2.367-2.766-3.622z"></path>
<path fill="#959c9c" style="fill: var(--color14, #959c9c)" d="M2.020 29.284c0.179 1.006 0.36 2.019 0.719 2.98 0.483 1.292 1.194 2.39 2.145 3.27 0.039-0.004 0.074-0.008 0.109-0.013 0.365-0.065 0.722-0.162 1.037-0.321-0.243-0.059-0.471-0.172-0.658-0.379-0.764-0.847-1.348-1.912-1.801-2.952-0.54-1.235-1.065-2.547-1.409-3.854-0.17-0.644-0.14-1.263-0.101-1.889-0.083-0.001-0.154 0.012-0.221 0.044-0.159 1.030 0.004 2.097 0.181 3.114z"></path>
<path fill="#d1d1d1" style="fill: var(--color13, #d1d1d1)" d="M2.009 28.194c0.121 2.583 1.404 5.278 3.109 7.302 0.154-0.031 0.297-0.067 0.438-0.108-1.143-1.076-2.070-2.372-2.65-3.846-0.408-1.035-0.787-2.261-0.908-3.468-0.003 0.015-0.001 0.026-0.003 0.037 0.010 0.028 0.016 0.052 0.014 0.082z"></path>
<path fill="#a5aaaa" style="fill: var(--color15, #a5aaaa)" opacity="0.41" d="M2.617 26.963c-0.175-0.174-0.41-0.58 0.033-0.441 0.286 0.090 0.512 0.346 0.744 0.521 0.873 0.656 1.552 1.452 2.265 2.262 0.758 0.857 1.81 2.184 1.41 3.399-0.156 0.47-0.454 0.556-0.8 0.174-0.472-0.517-0.763-1.237-1.096-1.844-0.603-1.107-1.116-2.265-1.881-3.279-0.211-0.28-0.435-0.547-0.676-0.792z"></path>
<path fill="#a5aaaa" style="fill: var(--color15, #a5aaaa)" d="M4.169 28.256c0.329 0.394 0.698 0.773 0.958 1.211 0.3 0.502 0.684 0.964 1.009 1.456 0.134 0.204 0.264 0.415 0.398 0.62 0.065 0.096 0.22 0.369 0.306 0.143 0.049-0.134-0.172-0.439-0.227-0.545-0.136-0.254-0.257-0.509-0.408-0.747-0.252-0.398-0.563-0.769-0.849-1.148-0.38-0.499-0.758-0.952-1.218-1.371-0.128-0.12-0.429-0.523-0.606-0.486 0.037 0.257 0.392 0.558 0.55 0.756 0.027 0.036 0.058 0.072 0.088 0.112z"></path>
</symbol>
<symbol id="icon-green-leaf" viewBox="0 0 32 32">
<path d="M27.218 29.555c0.123-0.19 0.165-0.421 0.118-0.642s-0.179-0.415-0.369-0.539c-0.927-0.601-2.002-1.306-3.158-2.1 0.45-1.808 0.741-3.653 0.868-5.512 0.185-3.285-0.378-5.925-1.677-7.998-2.528-4.004-7.344-4.988-11.219-5.781-2.383-0.486-4.63-0.939-5.55-1.969-0.108-0.12-0.248-0.208-0.404-0.252s-0.321-0.043-0.476 0.003c-0.155 0.046-0.294 0.135-0.401 0.257s-0.177 0.271-0.202 0.432c-0.106 0.517-1.779 12.395 4.499 18.635 3.095 3.066 7.552 4.201 13.26 3.365 1.286 0.931 2.478 1.684 3.53 2.353 0.19 0.123 0.421 0.165 0.642 0.118s0.415-0.18 0.539-0.369zM10.44 22.877c-4.436-4.386-4.336-12.405-4.151-15.69 1.642 0.724 3.374 1.223 5.149 1.483 3.74 0.76 7.971 1.625 10.114 5.007 1.637 2.607 1.878 6.396 0.74 11.524-4.501-3.24-9.578-7.663-11.154-12.729-0.077-0.205-0.229-0.372-0.425-0.469s-0.422-0.113-0.631-0.048c-0.209 0.065-0.385 0.207-0.492 0.398s-0.137 0.415-0.084 0.627c1.617 5.24 6.438 9.648 10.909 12.972-4.253 0.284-7.592-0.745-9.956-3.084l-0.018 0.008z"></path>
</symbol>
<symbol id="icon-flower" viewBox="0 0 32 32">
<path d="M9.007 12.245c-0.583 0.348-1.194 0.556-1.843 0.626-0.438 0.049-0.854-0.002-1.202-0.136-0.571-0.226-0.994-0.634-1.255-1.207-0.060-0.132-0.064-0.285-0.005-0.426 0.242-0.586 0.65-0.998 1.22-1.244 0.342-0.148 0.762-0.205 1.198-0.173 0.902 0.072 1.728 0.414 2.524 1.017l0.431-0.008c0.090-0.371 0.285-0.712 0.56-0.993l-0.225-0.377c-0.935-0.358-1.66-0.884-2.189-1.615-0.261-0.355-0.426-0.736-0.48-1.108-0.091-0.612 0.052-1.176 0.419-1.688 0.085-0.119 0.218-0.198 0.363-0.216 0.625-0.080 1.189 0.063 1.684 0.434 0.302 0.225 0.559 0.551 0.746 0.949 0.386 0.815 0.505 1.704 0.375 2.696l0.225 0.377c0.375-0.112 0.771-0.117 1.14-0.020l0.212-0.375c-0.155-0.991-0.062-1.88 0.301-2.701 0.176-0.404 0.425-0.739 0.722-0.972 0.483-0.381 1.043-0.547 1.674-0.481 0.145 0.013 0.278 0.090 0.373 0.207 0.385 0.499 0.542 1.065 0.465 1.678-0.047 0.37-0.2 0.761-0.452 1.122-0.37 0.538-0.844 0.976-1.427 1.324-0.225 0.134-0.468 0.248-0.722 0.356l-0.212 0.375c0.134 0.132 0.262 0.273 0.364 0.443s0.165 0.35 0.217 0.531l0.438-0.006c0.776-0.631 1.593-0.993 2.495-1.089 0.438-0.049 0.854 0.002 1.202 0.136 0.571 0.226 0.994 0.634 1.255 1.207 0.060 0.132 0.060 0.288 0.005 0.426-0.199 0.48-0.51 0.846-0.928 1.095-0.092 0.055-0.187 0.105-0.287 0.146-0.342 0.148-0.757 0.202-1.198 0.173-0.902-0.072-1.728-0.414-2.519-1.020l-0.431 0.008c-0.088 0.364-0.284 0.704-0.553 0.983 0.079 0.133 0.163 0.264 0.243 0.397 0.919 0.361 1.633 0.881 2.161 1.6 0.261 0.355 0.426 0.736 0.48 1.108 0.057 0.377 0.013 0.733-0.108 1.073 0.395 0.549 0.794 1.071 1.183 1.567 0.045-0.394 0.161-0.774 0.359-1.142 0.426-0.789 1.148-1.363 2.082-1.646 0.727-0.222 1.486-0.263 2.243-0.123 0.19 0.036 0.351 0.171 0.413 0.358s0.015 0.39-0.119 0.532c-0.373 0.397-0.848 1.115-0.953 1.826-0.165 1.113-0.778 1.765-1.463 2.173-0.207 0.123-0.413 0.215-0.623 0.303 1.688 1.808 3.239 3.012 4.541 3.493 0.279 0.102 0.419 0.41 0.317 0.689-0.046 0.121-0.128 0.213-0.229 0.274-0.133 0.079-0.302 0.099-0.46 0.044-0.937-0.35-1.899-0.972-2.844-1.753l-0.078 0.047c-0.383 0.328-0.816 0.667-1.294 0.952-0.9 0.537-1.972 0.889-3.211 0.638-0.884-0.177-2.070 0.057-2.816 0.309-0.206 0.073-0.431 0.008-0.57-0.152s-0.173-0.395-0.077-0.589c0.411-0.836 1.001-1.599 1.758-2.262 0.948-0.833 2.028-1.339 3.121-1.468 0.193-0.021 0.379-0.033 0.566-0.032-0.018-0.020-0.039-0.045-0.057-0.065-0.913-1.031-1.758-2.114-2.503-3.134-0.611 0.072-1.164-0.072-1.641-0.435-0.302-0.225-0.559-0.551-0.747-0.949-0.386-0.815-0.505-1.704-0.379-2.694l-0.225-0.377c-0.375 0.112-0.771 0.117-1.14 0.020l-0.212 0.375c0.155 0.991 0.062 1.88-0.301 2.701-0.176 0.404-0.425 0.739-0.722 0.972-0.084 0.069-0.173 0.128-0.265 0.183-0.418 0.249-0.892 0.351-1.405 0.296-0.148-0.018-0.278-0.090-0.373-0.207-0.385-0.499-0.542-1.065-0.465-1.678 0.047-0.37 0.2-0.761 0.452-1.122 0.516-0.743 1.223-1.289 2.144-1.677l0.214-0.383c-0.134-0.132-0.262-0.273-0.364-0.443s-0.165-0.35-0.217-0.531l-0.431 0.008c-0.224 0.177-0.44 0.337-0.665 0.471zM7.033 10.751c-0.268-0.021-0.505 0.009-0.694 0.090-0.235 0.097-0.409 0.244-0.54 0.452 0.135 0.206 0.318 0.346 0.555 0.441 0.188 0.075 0.427 0.1 0.696 0.071 0.545-0.057 1.040-0.24 1.523-0.547-0.497-0.301-0.998-0.463-1.541-0.507zM15.099 7.008c0.154-0.222 0.245-0.445 0.269-0.646 0.032-0.249-0.011-0.479-0.124-0.698-0.246 0.016-0.458 0.099-0.655 0.259-0.156 0.124-0.3 0.322-0.409 0.567-0.22 0.498-0.316 1.016-0.29 1.592 0.507-0.277 0.901-0.63 1.208-1.075zM17.263 11.662c0.268 0.021 0.505-0.009 0.693-0.090 0.232-0.101 0.411-0.251 0.54-0.452-0.135-0.206-0.318-0.346-0.553-0.436-0.188-0.075-0.427-0.1-0.696-0.071-0.545 0.057-1.035 0.237-1.523 0.547 0.494 0.297 0.995 0.459 1.538 0.502zM20.612 18.095c0.083-0.56 0.319-1.105 0.599-1.565-0.274 0.020-0.544 0.069-0.819 0.152-0.457 0.142-1.089 0.45-1.456 1.129-0.215 0.402-0.432 1.029-0.013 2.025 1.076-0.367 1.557-0.866 1.689-1.741zM9.198 15.405c-0.154 0.222-0.245 0.445-0.269 0.646-0.029 0.254 0.007 0.481 0.124 0.698 0.246-0.016 0.458-0.099 0.655-0.259 0.156-0.124 0.3-0.322 0.409-0.567 0.22-0.498 0.316-1.016 0.29-1.592-0.507 0.277-0.901 0.63-1.208 1.075zM9.563 5.993c-0.203-0.153-0.418-0.23-0.665-0.239-0.106 0.219-0.14 0.444-0.107 0.698 0.032 0.199 0.132 0.419 0.287 0.638 0.325 0.441 0.722 0.783 1.233 1.045 0.010-0.579-0.098-1.093-0.333-1.582-0.109-0.246-0.255-0.439-0.416-0.562zM17.863 22.006c-0.877 0.106-1.759 0.526-2.545 1.212-0.306 0.27-0.58 0.551-0.821 0.857 0.675-0.11 1.404-0.14 2.040-0.014 1.132 0.228 2.194-0.162 3.539-1.3-0.572-0.636-1.27-0.867-2.212-0.755zM14.733 16.42c0.203 0.153 0.417 0.231 0.665 0.239 0.106-0.219 0.144-0.447 0.107-0.699-0.031-0.199-0.132-0.419-0.287-0.638-0.325-0.441-0.722-0.783-1.233-1.045-0.010 0.579 0.098 1.093 0.333 1.582 0.109 0.246 0.256 0.439 0.416 0.561zM12.696 12.125c0.505-0.301 0.672-0.961 0.371-1.466s-0.961-0.672-1.466-0.371c-0.505 0.301-0.672 0.961-0.371 1.466s0.961 0.672 1.466 0.371z"></path>
</symbol>
<symbol id="icon-latuce" viewBox="0 0 32 32">
<path d="M20.553 22.592c-0.173 0-0.353-0.022-0.547-0.082-1.335-0.368-2.813 0.060-3.743 1.072-0.397 0.428-0.93 0.66-1.5 0.66-1.125 0-2.040-0.915-2.040-2.040 0-0.082 0.015-0.187 0.030-0.315 0.158-0.99-0.090-1.987-0.682-2.797-0.585-0.795-1.485-1.343-2.46-1.493-0.585-0.090-1.027-0.607-1.027-1.193 0-0.307 0.113-0.585 0.322-0.817 0.735-0.795 1.095-1.875 0.975-2.955-0.127-1.072-0.705-2.047-1.598-2.662-0.338-0.232-0.81-0.15-1.043 0.188-0.24 0.338-0.157 0.81 0.188 1.043 0.532 0.375 0.885 0.953 0.96 1.605 0.075 0.645-0.143 1.297-0.585 1.777-0.33 0.36-0.72 0.968-0.72 1.838 0 1.327 0.99 2.475 2.303 2.677 0.585 0.090 1.125 0.413 1.478 0.893 0.352 0.487 0.502 1.080 0.405 1.68-0.037 0.217-0.045 0.39-0.045 0.54 0 1.957 1.59 3.54 3.54 3.54 0.997 0 1.92-0.405 2.603-1.148 0.562-0.607 1.447-0.862 2.25-0.645 0.322 0.090 0.637 0.135 0.945 0.135 0.413 0 0.75-0.337 0.75-0.75-0.007-0.412-0.345-0.75-0.757-0.75z"></path>
<path d="M24.827 24.445c0.937-1.027 1.515-2.392 1.515-3.892 0-0.773-0.323-1.627-0.593-2.303 1.275-1.065 2.25-2.535 2.25-4.32 0-3.203-2.595-5.79-5.79-5.79-0.645 0-1.125 0.165-1.71 0.36-0.585-2.085-2.64-3.675-4.913-3.675-1.065 0-1.777 0.105-2.587 0.675-0.908-1.058-2.527-1.5-4.035-1.5-2.745 0-4.965 2.22-4.965 4.965 0 1.695 0.952 3.143 2.25 4.035-0.817 0.885-1.425 2.115-1.425 3.413 0 2.482 2.040 4.47 4.425 4.837-0.045 0.293-0.285 0.653-0.285 0.96 0 3.203 2.595 5.79 5.79 5.79 1.68 0 3.18-1.103 4.245-2.25 0.413 0.307 1.020 0.593 1.553 0.593 1.155 0 2.227-0.345 3.127-0.923 0.555 0.787 1.035 1.53 1.417 2.197 0.143 0.248 0.39 0.383 0.653 0.383 0.127 0 0.255-0.030 0.375-0.097 0.36-0.203 0.487-0.66 0.277-1.020-0.427-0.743-0.96-1.568-1.575-2.438zM19.893 24.55c-0.263-0.203-0.578-0.3-0.893-0.3-0.405 0-0.81 0.165-1.103 0.48-0.607 0.66-1.83 1.77-3.143 1.77-2.332 0-4.23-1.867-4.29-4.177 0.015-0.038 0.030-0.067 0.045-0.105 0.082-0.195 0.18-0.443 0.225-0.743 0.060-0.39-0.037-0.795-0.27-1.117-0.24-0.315-0.592-0.532-0.99-0.592-1.545-0.233-3.15-1.553-3.15-3.353 0-0.803 0.383-1.703 1.027-2.4 0.293-0.323 0.435-0.75 0.39-1.185s-0.277-0.825-0.638-1.065c-1.020-0.697-1.605-1.725-1.605-2.797 0-1.912 1.553-3.465 3.465-3.465 1.268 0 2.377 0.375 2.895 0.975 0.3 0.345 0.72 0.525 1.14 0.525 0.3 0 0.6-0.090 0.863-0.277 0.45-0.315 0.802-0.397 1.725-0.397 1.56 0 3.053 1.11 3.473 2.58 0.113 0.398 0.383 0.727 0.743 0.922 0.217 0.113 0.457 0.172 0.697 0.172 0.157 0 0.323-0.023 0.48-0.075l0.037-0.015c0.54-0.18 0.818-0.27 1.185-0.27 2.37 0 4.29 1.928 4.29 4.29 0 1.433-0.93 2.513-1.71 3.165-0.503 0.42-0.675 1.11-0.428 1.718 0.158 0.39 0.488 1.192 0.488 1.74 0 0.997-0.345 1.92-0.923 2.647-0.997-1.335-2.145-2.745-3.36-4.155l2.857-5.707c0.187-0.367 0.038-0.817-0.337-1.005-0.367-0.188-0.817-0.037-1.005 0.338l-2.58 5.153c-1.155-1.305-2.348-2.587-3.51-3.78l0.75-4.673c0.068-0.412-0.21-0.795-0.622-0.863-0.405-0.068-0.795 0.21-0.863 0.623l-0.577 3.592c-0.84-0.848-1.665-1.62-2.423-2.295v-1.928c0-0.412-0.338-0.75-0.75-0.75s-0.75 0.338-0.75 0.75v0.645c-0.765-0.607-1.418-1.065-1.912-1.313-0.375-0.188-0.825-0.037-1.005 0.33-0.188 0.375-0.037 0.825 0.33 1.005 0.66 0.33 1.635 1.072 2.79 2.092 0.023 0.015 0.037 0.030 0.053 0.045 1.207 1.065 2.618 2.43 4.080 3.945h-4.335c-0.412 0-0.75 0.337-0.75 0.75s0.338 0.75 0.75 0.75h5.663c0.030 0 0.053-0.015 0.083-0.015 0.757 0.818 1.522 1.665 2.265 2.513l-4.463 1.283c-0.397 0.113-0.63 0.533-0.51 0.93 0.090 0.323 0.383 0.54 0.713 0.54 0.067 0 0.135-0.007 0.21-0.030l5.123-1.47c1.073 1.267 2.077 2.52 2.962 3.705-0.652 0.405-1.425 0.645-2.25 0.645-0.082-0.007-0.367-0.097-0.652-0.3z"></path>
</symbol>
<symbol id="icon-strawberry" viewBox="0 0 32 32">
<path d="M25.136 10.302c-1.4-2.137-3.592-3.484-5.944-3.863 0.024-0.163 0-0.341-0.088-0.495-0.168-0.294-0.512-0.457-0.864-0.387l-4.856 0.968-0.672-1.997c-0.096-0.286-0.36-0.495-0.672-0.526s-0.616 0.116-0.776 0.379l-1.448 2.392c-0.984-0.728-2.192-1.223-3.416-1.223-0.44 0-0.8 0.348-0.8 0.774s0.36 0.774 0.8 0.774c0.928 0 1.856 0.434 2.592 1.014l-4.632 2.988c-0.296 0.186-0.424 0.542-0.32 0.867 0.096 0.325 0.408 0.55 0.76 0.55h2.136l-1.312 4.436c-0.096 0.341 0.048 0.697 0.36 0.875 0.128 0.077 0.272 0.101 0.416 0.101 0.016 2.532 1.176 4.986 3.312 6.565 3.16 2.33 7.76 3.515 13.68 3.515 0.224 0 0.448 0 0.672-0.008 1.856-0.031 3.432-1.401 3.664-3.19 0.76-5.845-0.112-10.723-2.592-14.508zM26.144 24.617c-0.136 1.030-1.032 1.819-2.096 1.835-5.88 0.085-10.376-0.983-13.36-3.19-2.096-1.548-3.032-4.142-2.568-6.635l1.152-1.076c-1.056 2.555-0.296 5.474 1.904 7.099 2.728 2.013 6.84 3.035 12.216 3.035 0.216 0 0.432 0 0.656-0.008 0.44-0.008 0.792-0.364 0.784-0.79s-0.368-0.759-0.8-0.759c-0.008 0-0.008 0-0.016 0-5.32 0.093-9.32-0.836-11.864-2.71-1.712-1.262-2.24-3.623-1.248-5.605l2.072 2.601c0.144 0.186 0.384 0.294 0.624 0.294 0.088 0 0.176-0.015 0.256-0.039 0.328-0.108 0.544-0.403 0.544-0.735v-5.512l5.696-0.689c0.36-0.046 0.648-0.317 0.696-0.666s-0.152-0.681-0.488-0.821l-3.376-1.339 1.024-1.030c2.28 0.039 4.496 1.2 5.832 3.244 2.272 3.484 3.072 8.021 2.36 13.494zM10.040 9.288c0.016-0.008 0.016-0.015 0.024-0.023 0.216 0.333 0.336 0.658 0.336 0.929 0 0.426 0.36 0.774 0.8 0.774s0.8-0.348 0.8-0.774c0-0.736-0.384-1.564-1.008-2.315l0.744-1.231 0.344 1.022c0.128 0.379 0.528 0.596 0.92 0.519l3.016-0.604-1.072 1.076c-0.184 0.186-0.264 0.449-0.208 0.697s0.232 0.457 0.48 0.557l1.648 0.65-3.368 0.41c-0.392 0.046-0.696 0.379-0.696 0.766v3.917l-2-2.516c-0.136-0.178-0.352-0.286-0.576-0.302-0.016 0-0.040 0-0.056 0-0.208 0-0.408 0.077-0.56 0.217l-1.616 1.517 0.776-2.632c0.072-0.225 0.024-0.472-0.128-0.666s-0.392-0.31-0.64-0.31h-0.56l2.6-1.68z"></path>
<path d="M17.032 15.389c0.16 0.147 0.36 0.224 0.568 0.224s0.408-0.077 0.568-0.224c0.312-0.302 0.312-0.79 0-1.092l-0.8-0.774c-0.312-0.302-0.816-0.302-1.128 0s-0.312 0.79 0 1.092l0.792 0.774z"></path>
<path d="M21.832 14.614c0.16 0.147 0.36 0.225 0.568 0.225s0.408-0.077 0.568-0.225c0.312-0.302 0.312-0.79 0-1.092l-0.8-0.774c-0.312-0.302-0.816-0.302-1.128 0s-0.312 0.79 0 1.092l0.792 0.774z"></path>
<path d="M18.168 19.709l-0.8-0.774c-0.312-0.302-0.816-0.302-1.128 0s-0.312 0.79 0 1.092l0.8 0.774c0.152 0.155 0.352 0.232 0.56 0.232s0.408-0.077 0.568-0.225c0.312-0.302 0.312-0.797 0-1.099z"></path>
<path d="M20.232 18.485c0.16 0.147 0.36 0.225 0.568 0.225s0.408-0.077 0.568-0.225c0.312-0.302 0.312-0.79 0-1.092l-0.8-0.774c-0.312-0.302-0.816-0.302-1.128 0s-0.312 0.79 0 1.092l0.792 0.774z"></path>
<path d="M23.432 18.485l0.8 0.774c0.16 0.147 0.36 0.224 0.568 0.224s0.408-0.077 0.568-0.224c0.312-0.302 0.312-0.79 0-1.092l-0.8-0.774c-0.312-0.302-0.816-0.302-1.128 0-0.32 0.294-0.32 0.79-0.008 1.092z"></path>
<path d="M22.168 20.483c-0.312-0.302-0.816-0.302-1.128 0s-0.312 0.79 0 1.092l0.8 0.774c0.152 0.155 0.352 0.232 0.56 0.232s0.408-0.077 0.568-0.225c0.312-0.302 0.312-0.79 0-1.092l-0.8-0.782z"></path>
</symbol>
<symbol id="icon-garden_tool" viewBox="0 0 31 32">
<path d="M13.123 6.559l-1.951-1.804c-0.395-0.367-1.013-0.367-1.408 0l-1.951 1.804c-0.895 0.832-1.413 1.995-1.413 3.212v7.674c0 0.608 0.512 1.13 1.124 1.13h2.287v2.011c-0.509 0.244-0.916 0.775-0.916 1.392v4.025c0 0.847 0.714 1.517 1.568 1.517h0.003c0.854 0 1.535-0.67 1.535-1.517v-4.025c0-0.617-0.356-1.148-0.865-1.392v-5.241c0-0.245 0.182-0.409 0.429-0.409h0.001c0.247 0 0.435 0.164 0.435 0.409v3.229h1.399c0.612 0 1.147-0.522 1.147-1.13v-7.674c0-1.217-0.527-2.38-1.422-3.212zM23.669 5.030h-0.052c-0.377 0-0.672 0.278-0.672 0.652v3.541c0 0.518-0.438 0.962-0.96 0.962h-0.003c-0.522 0-0.972-0.444-0.972-0.962v-3.541c0-0.374-0.275-0.652-0.652-0.652h-0.003c-0.377 0-0.669 0.278-0.669 0.652v3.541c0 0.518-0.433 0.962-0.954 0.962h-0.003c-0.521 0-0.927-0.444-0.927-0.962v-3.541c0-0.374-0.32-0.652-0.697-0.652h-0.003c-0.377 0-0.675 0.278-0.675 0.652v11.709c0 0.637 0.522 1.184 1.164 1.184h2.146v2.011c-0.56 0.244-0.916 0.775-0.916 1.392v4.025c0 0.847 0.709 1.517 1.563 1.517h-0.001c0.854 0 1.544-0.67 1.544-1.517v-4.025c0-0.617-0.356-1.148-0.916-1.392v-5.302c0.102-0.216 0.23-0.383 0.456-0.383 0.247 0 0.461 0.199 0.461 0.444v3.229h1.261c0.642 0 1.131-0.546 1.131-1.184v-11.709c0-0.374-0.274-0.652-0.651-0.652z"></path>
</symbol>
<symbol id="icon-bundles" viewBox="0 0 32 32">
<path stroke-linejoin="miter" stroke-linecap="butt" stroke-miterlimit="4" stroke-width="1.7143" d="M8.013 7.474c-0.21 0.667 0.311 2.143 0.541 2.4l-0.2 0.34 4.050 14.141c0.228 0.856 0.887 0.91 1.189 0.83l10.581-2.813c1.051-0.127 1.231-0.709 1.191-0.985l-3.897-14.659-0.433-0.171c0.178-0.302 0.282-1.855-0.27-2.472-0.689-0.772-12.489 2.556-12.751 3.39z"></path>
<path stroke-linejoin="miter" stroke-linecap="butt" stroke-miterlimit="4" stroke-width="1.7143" d="M4.615 15.030c-0.098 0.71 0.748 1.995 1.045 2.179l-0.151 0.389 7.085 12.591c0.41 0.767 1.132 0.628 1.442 0.463l10.873-5.809c1.109-0.428 1.192-1.048 1.095-1.304l-7.020-13.14-0.5-0.041c0.134-0.346-0.053-1.887-0.766-2.328-0.892-0.551-12.98 6.112-13.103 7z"></path>
</symbol>
<symbol id="icon-tomato" viewBox="0 0 32 32">
<path d="M18.933 5.806c-0.184-0.168-0.44-0.248-0.696-0.192l-0.24 0.048c-0.392-0.040-0.792-0.064-1.2-0.064-1.24 0-2.44 0.208-3.552 0.584l-0.536-1.632c-0.096-0.296-0.36-0.512-0.672-0.544-0.312-0.040-0.616 0.112-0.776 0.384l-1.448 2.472c-0.984-0.752-2.192-1.264-3.416-1.264-0.44 0-0.8 0.36-0.8 0.8s0.36 0.8 0.8 0.8c0.928 0 1.856 0.448 2.592 1.048l-4.632 3.088c-0.296 0.192-0.424 0.56-0.32 0.896 0.096 0.336 0.408 0.568 0.76 0.568h1.552c-0.48 1.24-0.752 2.592-0.752 4 0 0.2 0.016 0.392 0.032 0.592-0.048 0.168-0.032 0.344 0.024 0.496 0.544 5.672 5.328 10.113 11.145 10.113 6.184 0 11.201-5.016 11.201-11.201 0-5.456-3.896-9.993-9.065-10.993zM16.797 26.4c-4.928 0-9.001-3.736-9.537-8.521l0.76-0.736c0.080 2.136 0.928 4.256 2.56 5.88 1.712 1.712 3.968 2.576 6.224 2.576s4.504-0.856 6.224-2.576c0.312-0.312 0.312-0.816 0-1.128s-0.816-0.312-1.128 0c-2.808 2.808-7.377 2.808-10.185 0-1.736-1.736-2.4-4.152-1.984-6.409l0.352-0.344 2.888 3.744c0.144 0.2 0.384 0.312 0.624 0.312 0.088 0 0.176-0.016 0.256-0.040 0.328-0.112 0.544-0.416 0.544-0.76v-5.696l5.696-0.712c0.36-0.048 0.648-0.328 0.696-0.688s-0.152-0.704-0.488-0.848l-3.376-1.384 1.648-1.704c4.448 0.84 7.825 4.744 7.825 9.433 0 5.296-4.304 9.601-9.601 9.601zM10.036 9.463c0.016-0.008 0.016-0.016 0.024-0.024 0.216 0.344 0.336 0.68 0.336 0.96 0 0.44 0.36 0.8 0.8 0.8s0.8-0.36 0.8-0.8c0-0.76-0.384-1.616-1.008-2.392l0.744-1.272 0.344 1.056c0.128 0.384 0.52 0.616 0.92 0.536l3.016-0.624-1.072 1.112c-0.184 0.192-0.264 0.464-0.208 0.72s0.232 0.472 0.48 0.576l1.648 0.672-3.368 0.424c-0.392 0.048-0.696 0.392-0.696 0.792v4.048l-2-2.6c-0.136-0.184-0.352-0.296-0.576-0.312-0.016 0-0.040 0-0.056 0-0.208 0-0.408 0.080-0.56 0.224l-1.616 1.568 0.776-2.72c0.072-0.232 0.024-0.488-0.128-0.688s-0.392-0.32-0.64-0.32h-0.56l2.6-1.736z"></path>
</symbol>
<symbol id="icon-star" viewBox="0 0 32 32">
<path d="M29.333 13.467c0.133-0.667-0.4-1.467-1.067-1.467l-7.6-1.067-3.467-6.933c-0.133-0.267-0.267-0.4-0.533-0.533-0.667-0.4-1.467-0.133-1.867 0.533l-3.333 6.933-7.6 1.067c-0.4 0-0.667 0.133-0.8 0.4-0.533 0.533-0.533 1.333 0 1.867l5.467 5.333-1.333 7.6c0 0.267 0 0.533 0.133 0.8 0.4 0.667 1.2 0.933 1.867 0.533l6.8-3.6 6.8 3.6c0.133 0.133 0.4 0.133 0.667 0.133 0.133 0 0.133 0 0.267 0 0.667-0.133 1.2-0.8 1.067-1.6l-1.333-7.6 5.467-5.333c0.267-0.133 0.4-0.4 0.4-0.667z"></path>
</symbol>
<symbol id="icon-star-half" viewBox="0 0 32 32">
<path d="M29.333 13.467c0.133-0.667-0.4-1.467-1.067-1.467l-7.6-1.067-3.467-6.933c-0.133-0.267-0.267-0.4-0.533-0.533-0.667-0.4-1.467-0.133-1.867 0.533l-3.333 6.933-7.6 1.067c-0.4 0-0.667 0.133-0.8 0.4-0.533 0.533-0.533 1.333 0 1.867l5.467 5.333-1.333 7.6c0 0.267 0 0.533 0.133 0.8 0.4 0.667 1.2 0.933 1.867 0.533l6.8-3.6 6.8 3.6c0.133 0.133 0.4 0.133 0.667 0.133 0.133 0 0.133 0 0.267 0 0.667-0.133 1.2-0.8 1.067-1.6l-1.333-7.6 5.467-5.333c0.267-0.133 0.4-0.4 0.4-0.667zM21.067 18.133c-0.267 0.267-0.4 0.8-0.4 1.2l0.933 5.6-5.067-2.667c-0.133-0.133-0.4-0.133-0.667-0.133v-14.533l2.533 5.067c0.133 0.4 0.533 0.667 1.067 0.667l5.6 0.8-4 4z"></path>
</symbol>
<symbol id="icon-clock" viewBox="0 0 32 32">
<path d="M16 4c-6.6 0-12 5.4-12 12s5.4 12 12 12c6.6 0 12-5.4 12-12s-5.4-12-12-12zM19.6 17.2h-3.6c-0.72 0-1.2-0.48-1.2-1.2v-6c0-0.72 0.48-1.2 1.2-1.2s1.2 0.48 1.2 1.2v4.8h2.4c0.72 0 1.2 0.48 1.2 1.2s-0.48 1.2-1.2 1.2z"></path>
</symbol>
<symbol id="icon-arrow-right" viewBox="0 0 32 32">
<path fill="#359740" style="fill: var(--color1, #359740)" d="M2.667 16c0-7.364 5.97-13.333 13.333-13.333s13.333 5.97 13.333 13.333c0 7.364-5.97 13.333-13.333 13.333s-13.333-5.969-13.333-13.333zM13.724 19.057c-0.521 0.521-0.521 1.365 0 1.886s1.365 0.521 1.886 0l4-4c0.521-0.521 0.521-1.365 0-1.886l-4-4c-0.521-0.521-1.365-0.521-1.886 0s-0.521 1.365 0 1.886l3.057 3.057-3.057 3.057z"></path>
</symbol>
</svg>